<?xml version="1.0" encoding="UTF-8" standalone="no"?>
<!-- Created with Inkscape (http://www.inkscape.org/) -->

<svg
   version="1.1"
   id="svg1"
   width="1000"
   height="666.66669"
   viewBox="0 0 1000 666.66669"
   sodipodi:docname="9212666.eps"
   xmlns:inkscape="http://www.inkscape.org/namespaces/inkscape"
   xmlns:sodipodi="http://sodipodi.sourceforge.net/DTD/sodipodi-0.dtd"
   xmlns="http://www.w3.org/2000/svg"
   xmlns:svg="http://www.w3.org/2000/svg">
  <defs
     id="defs1" />
  <sodipodi:namedview
     id="namedview1"
     pagecolor="#ffffff"
     bordercolor="#000000"
     borderopacity="0.25"
     inkscape:showpageshadow="2"
     inkscape:pageopacity="0.0"
     inkscape:pagecheckerboard="0"
     inkscape:deskcolor="#d1d1d1" />
  <g
     id="g1"
     inkscape:groupmode="layer"
     inkscape:label="1">
    <g
       id="group-R5">
      <path
         id="path2"
         d="m 1074.0545,116.67138 h 1000 v -666.66665 h -1000 v 666.66665"
         style="fill:#ffffff;fill-opacity:1;fill-rule:evenodd;stroke:none;stroke-width:0.133333" />
      <path
         id="path3"
         d="m 1870.2357,-314.38168 c 0.5893,3.84266 1.1586,7.89733 2.1773,11.65066 0.6693,2.46934 1.596,4.96667 3.2787,6.93867 1.6973,1.98667 3.956,3.2 6.3746,4.09467 3.8174,1.412 8.24,2.16266 12.2587,2.75866 1.676,0.25067 3.372,0.5 5.0587,0.68134 0.4933,0.052 1.0026,0.0747 1.4906,0.13866 0.5934,0.076 1.2307,0.26667 1.8094,0.41467 1.984,0.512 3.972,1.00933 5.9613,1.49733 0.732,0.18 1.244,0.78667 1.296,1.53867 0.055,0.75333 -0.3667,1.42533 -1.0667,1.708 -3.2346,1.29733 -6.6853,2.808 -10.0866,3.59067 -3.5627,0.81866 -7.328,0.83066 -10.9627,0.804 -8.496,-0.0653 -17.1173,-1.58934 -23.396,-7.768 -6.256,-6.156 -9.0547,-15.99467 -11.3053,-24.23734 -0.01,-0.0267 -0.013,-0.0493 -0.019,-0.076 -1.0587,-4.70266 1.9253,-9.42 6.628,-10.47866 4.7027,-1.05734 9.4227,1.92666 10.48,6.62933 0.01,0.04 0.017,0.0747 0.023,0.11467 z m -113.2427,30.00933 c -0.648,0.284 -1.036,0.89467 -1.02,1.6 0.013,0.70667 0.4267,1.29867 1.0853,1.556 7.3627,2.87733 16.3494,3.01733 24.1174,2.14533 6.984,-0.78533 14.3253,-2.50933 20.844,-5.156 14.3146,-5.80666 20.9786,-13.66266 22.588,-29.18933 0.011,-0.084 0.011,-0.15333 0.01,-0.23733 -0.1694,-4.832 -4.2387,-8.624 -9.0694,-8.45467 -4.832,0.17067 -8.6253,4.24133 -8.4533,9.072 0.025,3.09067 -0.7067,6.00667 -2.396,8.66133 -4.62,7.25334 -15.484,10.85067 -23.3467,13.064 -4.372,1.232 -8.7946,2.26534 -13.192,3.39734 -3.7066,0.95466 -7.66,2.00133 -11.1653,3.54133 z m 26.9853,125.27866 c -9.2133,4.50267 -20.784,5.76534 -30.6066,4.60667 -4.2267,-0.5 -8.48,-1.10267 -12.5267,-2.47467 -3.7733,-1.27866 -7.3533,-3.2 -10.844,-5.09866 -0.7333,-0.39867 -1.0693,-1.24534 -0.8067,-2.03867 0.2627,-0.792 1.0387,-1.27067 1.864,-1.15467 5.7347,0.824 11.4947,1.65734 17.2614,2.204 2.1146,0.2 4.2306,0.35867 6.348,0.45334 -4.9054,-2.55067 -9.3907,-5.95867 -13.268,-9.89867 -8.2494,-8.38 -13.9867,-19.336 -16.068,-30.92 -1.132,-6.31733 -1.1614,-12.76267 -0.025,-19.08 1.1534,-6.412 3.4734,-12.52667 6.7987,-18.12133 8.6667,-14.57733 23.22,-24.55733 38.496,-31.24 12.1733,-5.32667 26.9813,-6.912 38.9133,-0.0667 7.7654,4.45734 12.808,11.65467 15.3494,20.148 1.8586,6.20933 2.3253,12.79467 1.9733,19.24267 -0.2653,4.90133 -1.0053,9.78666 -2.0467,14.58133 -3.576,16.45333 -9.964,34.79467 -21.8666,47.11467 -5.4147,5.60666 -11.8187,9.724 -18.9454,11.74266 z m 114.344,3.908 c 0.4347,0.14667 0.872,0.292 1.3094,0.43467 3.2813,1.076 6.596,2.052 9.8933,3.08933 0.7347,0.232 1.2107,0.896 1.1947,1.66667 -0.017,0.77067 -0.5227,1.41333 -1.268,1.61467 -3.9054,1.04133 -8.284,0.81466 -12.2347,0.14 -4.564,-0.78134 -9.112,-2.24 -13.38,-4.01734 -6.3227,-2.63066 -13.836,-6.772 -18.976,-11.65733 -5.1387,-4.156 -9.3653,-9.56 -12.5493,-15.23333 -5.0787,-9.04534 -7.956,-19.448 -8.3707,-29.80534 -0.46,-11.56533 2.1667,-22.99466 7.8307,-33.10266 6.844,-12.216 17.412,-21.41733 29.6333,-28.03467 11.068,-5.99066 23.1093,-7.10933 34.1973,-0.50133 7.8934,4.70267 13.8654,12.55733 17.592,20.856 6.0334,13.44666 6.3094,30.18933 3.596,44.488 -3.5733,18.81866 -13.984,41.01866 -32.9426,48.412 -1.836,0.716 -3.68,1.26266 -5.5254,1.65066 v 0"
         style="fill:#252428;fill-opacity:1;fill-rule:evenodd;stroke:none;stroke-width:0.133333" />
      <path
         id="path4"
         d="m 1823.121,-218.31369 c -3.492,16.07334 -9.76,34.21734 -21.424,46.292 -8.2213,8.51067 -18.748,13.456 -30.7133,12.492 -10.8654,-0.87466 -20.816,-6.492 -28.3654,-14.16133 -8.008,-8.13733 -13.5826,-18.78133 -15.6013,-30.02533 -2.2493,-12.532 0.055,-25.08134 6.56,-36.02534 8.476,-14.25999 22.7733,-24.01466 37.7107,-30.54799 11.6906,-5.116 25.896,-6.73734 37.3746,-0.15067 7.3854,4.23733 12.1467,11.08267 14.5654,19.156 3.152,10.51733 2.196,22.38533 -0.1067,32.97066"
         style="fill:#252428;fill-opacity:1;fill-rule:evenodd;stroke:none;stroke-width:0.133333" />
      <path
         id="path5"
         d="m 1818.9463,-219.22169 c 9.94,-45.72533 -18.6973,-59.07599 -45.948,-47.15466 -106.9213,46.77733 17.9614,175.903994 45.948,47.15466"
         style="fill:#ffffff;fill-opacity:1;fill-rule:evenodd;stroke:none;stroke-width:0.133333" />
      <path
         id="path6"
         d="m 1818.9463,-219.22169 c 0.1587,-0.72933 0.308,-1.45066 0.448,-2.164 -3.6453,4.948 -8.0026,10.25734 -13.2213,15.89867 -24.2653,26.23333 -60.8933,12.98133 -75.0493,-15.6 -8.576,49.988 66.844,98.37333 87.8226,1.86533"
         style="fill:#babcba;fill-opacity:1;fill-rule:evenodd;stroke:none;stroke-width:0.133333" />
      <path
         id="path7"
         d="m 1882.2197,-268.58702 c 10.5453,-5.70933 21.9533,-6.82666 32.508,-0.536 7.5893,4.52 13.328,12.11734 16.9066,20.08667 5.8907,13.11866 6.1227,29.53866 3.476,43.47066 -3.448,18.17467 -13.5093,39.972 -31.8826,47.13867 -10.4187,4.06133 -21.088,2.36133 -30.8614,-2.60933 -7.9426,-4.04267 -14.2506,-11.26667 -18.5626,-18.948 -4.9454,-8.808 -7.7507,-18.95067 -8.1534,-29.03734 -0.4506,-11.27066 2.0907,-22.344 7.6147,-32.19866 6.6867,-11.932 17.0173,-20.90267 28.9547,-27.36667"
         style="fill:#252428;fill-opacity:1;fill-rule:evenodd;stroke:none;stroke-width:0.133333" />
      <path
         id="path8"
         d="m 1884.2543,-264.83102 c -52.2653,28.29867 -35.98,86.74 -9.9506,99.98667 44.5933,22.69066 69.0386,-47.68 53.4346,-82.44134 -6.6146,-14.73599 -21.852,-29.25733 -43.484,-17.54533"
         style="fill:#ffffff;fill-opacity:1;fill-rule:evenodd;stroke:none;stroke-width:0.133333" />
      <path
         id="path9"
         d="m 1861.0477,-245.35769 c -22.3147,29.93334 -7.6894,69.85467 13.256,80.51334 19.1826,9.76 34.632,2.29466 44.7733,-12.14267 -4.4187,0.948 -8.6387,1.44267 -12.5307,1.34 -26.1106,-0.68667 -49.6026,-36.35333 -45.4986,-69.71067"
         style="fill:#babcba;fill-opacity:1;fill-rule:evenodd;stroke:none;stroke-width:0.133333" />
      <path
         id="path10"
         d="m 1794.2103,-209.94569 c 4.2574,0 7.728,-4.688 7.728,-10.43466 0,-5.75067 -3.4706,-10.43734 -7.728,-10.43734 -4.2586,0 -7.732,4.68667 -7.732,10.43734 0,5.74666 3.4734,10.43466 7.732,10.43466"
         style="fill:#252428;fill-opacity:1;fill-rule:evenodd;stroke:none;stroke-width:0.133333" />
      <path
         id="path11"
         d="m 1902.4383,-207.62569 c 4.2587,0 7.732,-4.688 7.732,-10.43733 0,-5.748 -3.4733,-10.43467 -7.732,-10.43467 -4.2546,0 -7.728,4.68667 -7.728,10.43467 0,5.74933 3.4734,10.43733 7.728,10.43733"
         style="fill:#252428;fill-opacity:1;fill-rule:evenodd;stroke:none;stroke-width:0.133333" />
      <path
         id="path12"
         d="m 1822.9103,-313.59235 c -1.5306,14.75733 -7.6666,22.15867 -21.5306,27.784 -12.1694,4.93733 -31.2374,7.872 -43.6987,3.00133 14.956,-6.57466 51.3173,-7.59333 51.12,-30.288 -0.1387,-3.896 2.9093,-7.16666 6.804,-7.30266 3.8987,-0.13867 7.1667,2.908 7.3053,6.80533"
         style="fill:#252428;fill-opacity:1;fill-rule:evenodd;stroke:none;stroke-width:0.133333" />
      <path
         id="path13"
         d="m 1868.5477,-314.12035 c 2.9306,19.096 4.0706,23.68533 25.524,26.87333 11.2733,1.67467 1.7053,-0.36 14.1666,2.7 -8.992,3.61067 -10.5026,4.348 -20.4013,4.272 -22.8987,-0.17466 -27.8453,-11.636 -33.0653,-30.74533 -0.8534,-3.804 1.5346,-7.58133 5.3386,-8.43733 3.8054,-0.856 7.5814,1.53333 8.4374,5.33733"
         style="fill:#252428;fill-opacity:1;fill-rule:evenodd;stroke:none;stroke-width:0.133333" />
      <path
         id="path14"
         d="m 1730.8197,-163.56035 c 25.5613,3.66933 38.2306,5.14266 62.7573,-4.99734 l -6.3227,5.628 c -9.368,6.23867 -22.7506,8.036 -33.68,6.74667 -10.5546,-1.244 -13.7573,-2.48667 -22.7546,-7.37733"
         style="fill:#252428;fill-opacity:1;fill-rule:evenodd;stroke:none;stroke-width:0.133333" />
      <path
         id="path15"
         d="m 1855.765,-185.20569 c 8.2813,15.78267 17.004,20.992 33.3173,28.26267 6.9787,3.10933 12.724,4.64533 19.9294,6.91067 -12.7134,3.39866 -35.356,-7.06667 -44.0494,-16.19467 -6.172,-6.48133 -8.604,-10.35733 -9.1973,-18.97867"
         style="fill:#252428;fill-opacity:1;fill-rule:evenodd;stroke:none;stroke-width:0.133333" />
      <path
         id="path16"
         d="m 1761.621,-457.76701 c -1.62,-0.47067 -3.216,-0.976 -4.7893,-1.51467 -5.9814,-2.04267 -12.2294,-4.72133 -17.624,-8.03867 -1.696,-1.04133 -3.532,-2.272 -4.9694,-3.65466 -1.0826,-1.04134 -2.3413,-2.59334 -1.6306,-4.18934 0.6986,-1.56133 2.592,-1.65466 4.0546,-1.51866 2.112,0.19733 4.448,0.87866 6.464,1.51733 6.2454,1.98 12.7267,3.51467 19.268,4.076 5.784,0.49467 11.5734,0.20933 17.2214,-1.20533 14.6933,-3.68134 25.36,-14.30267 33.672,-26.472 0.2733,-0.40134 0.656,-0.64534 1.136,-0.724 0.4786,-0.0773 0.9186,0.032 1.3066,0.32533 1.464,1.108 2.9227,2.456 4.2187,3.74667 2.7293,2.71466 5.292,5.848 7.0973,9.25866 1.2134,2.29334 2.1134,4.78267 2.3894,7.37334 0.4826,4.52266 -1.056,8.552 -4.0827,11.9 -2.7653,3.064 -6.6013,5.42266 -10.5853,7.248 0.3533,0.30133 0.7026,0.61466 1.0493,0.93733 2.4813,2.31467 4.5667,4.99067 6.2653,7.92533 5.3334,9.23067 6.672,20.736 5.64,31.21067 -0.9893,10.08533 -4.0386,20.15467 -8.5026,29.24133 -8.0054,16.31067 -20.8947,29.908 -36.612,35.16133 -18.924,9.06134 -42.012,11.56134 -61.2987,7.40534 -0.8307,-0.18 -1.396,-0.924 -1.344,-1.77334 0.049,-0.84933 0.7,-1.52133 1.5493,-1.59866 5.0387,-0.46267 10.0787,-0.79334 15.1227,-1.15467 4.3173,-0.308 8.64,-0.64667 12.932,-1.23467 2.1147,-0.29066 4.2107,-0.64266 6.292,-1.06666 -1.9347,-0.53734 -3.8907,-1.204 -5.8627,-2.00667 -9.0986,-3.70267 -16.46,-9.876 -20.7133,-18.83867 -9.0333,-19.03599 -0.9733,-43.17599 10.0813,-59.63866 5.736,-8.54133 13.364,-16.76533 22.2547,-22.69733 z m 86.8,-1.872 c -3.9853,-1.82534 -7.8187,-4.184 -10.5867,-7.248 -3.0253,-3.348 -4.5653,-7.37734 -4.0826,-11.9 0.276,-2.59067 1.1773,-5.08 2.3906,-7.37334 1.804,-3.41066 4.3667,-6.544 7.0934,-9.25866 1.3,-1.29067 2.76,-2.63867 4.224,-3.74667 0.3853,-0.29333 0.8253,-0.40267 1.3053,-0.32533 0.4787,0.0787 0.864,0.32266 1.1373,0.724 8.3107,12.16933 18.9787,22.79066 33.672,26.472 5.6454,1.41466 11.4347,1.7 17.2214,1.20533 6.536,-0.56133 13.0213,-2.096 19.2653,-4.076 2.0187,-0.63867 4.352,-1.32 6.464,-1.51733 1.464,-0.136 3.356,-0.0427 4.052,1.51866 0.716,1.596 -0.544,3.148 -1.6253,4.18934 -1.4374,1.38266 -3.276,2.61333 -4.9707,3.65466 -5.396,3.31734 -11.644,5.996 -17.6253,8.03867 -1.5734,0.53867 -3.1694,1.044 -4.7894,1.51467 8.888,5.932 16.5214,14.156 22.256,22.69733 11.0574,16.46267 19.1134,40.60267 10.0827,59.63866 -4.2547,8.96267 -11.6173,15.136 -20.716,18.83867 -2.864,1.164 -5.776,2.068 -8.7213,2.69467 2.9266,0.68533 5.8773,1.22133 8.8693,1.63066 4.292,0.58934 8.612,0.928 12.9307,1.236 5.0466,0.36 10.0853,0.68934 15.124,1.15334 0.8466,0.0773 1.4973,0.75066 1.5493,1.59866 0.051,0.848 -0.5147,1.59467 -1.3453,1.77334 -26.2734,5.664 -59.6094,-1.02934 -79.8574,-19.83734 -14.948,-13.35333 -24.4266,-34.42666 -26.2733,-53.22266 -0.4507,-4.592 -0.4427,-9.264 0.1173,-13.844 1.156,-9.47333 4.7027,-18.67867 11.7894,-25.292 0.3453,-0.32267 0.6946,-0.636 1.0493,-0.93733 v 0"
         style="fill:#252428;fill-opacity:1;fill-rule:evenodd;stroke:none;stroke-width:0.133333" />
      <path
         id="path17"
         d="m 1818.0957,-404.52835 c -1.704,13.18667 -5.2374,21.75733 -14.2894,31.81733 -19.1333,21.272 -54.5573,29.228 -82.136,23.28267 22.62,-2.07867 34.532,-0.844 56.38,-10.80533 23,-10.48934 31.108,-21.44134 40.0454,-44.29467"
         style="fill:#252428;fill-opacity:1;fill-rule:evenodd;stroke:none;stroke-width:0.133333" />
      <path
         id="path18"
         d="m 1844.8117,-403.27635 c 1.7026,13.18667 5.236,21.75867 14.2866,31.81867 19.1347,21.27333 54.56,29.22666 82.1374,23.28266 -22.62,-2.07866 -34.5307,-0.844 -56.38,-10.80666 -23.0027,-10.488 -31.1067,-21.44134 -40.044,-44.29467"
         style="fill:#252428;fill-opacity:1;fill-rule:evenodd;stroke:none;stroke-width:0.133333" />
      <path
         id="path19"
         d="m 1750.6423,-358.17502 c -8.704,-3.54266 -15.7453,-9.416 -19.8133,-17.988 -8.7627,-18.45999 -0.7307,-42.04399 9.956,-57.95599 8.5187,-12.68267 21.3747,-24.756 36.2973,-29.18134 12.9107,-3.828 27.18,-3.84666 37.5707,5.848 10.1147,9.43867 12.6693,24.51067 11.3693,37.71867 -0.9693,9.86933 -3.972,19.76667 -8.336,28.65733 -12.6453,25.75733 -37.768,44.81067 -67.044,32.90133"
         style="fill:#252428;fill-opacity:1;fill-rule:evenodd;stroke:none;stroke-width:0.133333" />
      <path
         id="path20"
         d="m 1752.129,-361.82968 c 37.3067,15.17733 66.648,-24.52 69.9693,-58.28933 2.5854,-26.29334 -11.5453,-48.992 -43.8933,-39.4 -37.9533,11.25466 -69.672,79.95599 -26.076,97.68933"
         style="fill:#ffffff;fill-opacity:1;fill-rule:evenodd;stroke:none;stroke-width:0.133333" />
      <path
         id="path21"
         d="m 1752.129,-361.82968 c 37.3067,15.17733 66.648,-24.52 69.9693,-58.28933 2.0147,-20.50667 -6.1333,-38.82534 -25.1666,-41.34534 35.0026,27.98267 -4.4254,95.64133 -50.6054,77.52 -6.1866,-2.42666 -11.5586,-6.188 -15.2386,-11.00133 -0.3574,14.21466 5.6346,26.848 21.0413,33.116"
         style="fill:#babcba;fill-opacity:1;fill-rule:evenodd;stroke:none;stroke-width:0.133333" />
      <path
         id="path22"
         d="m 1777.5823,-403.23235 c 3.932,0 7.1374,-4.32933 7.1374,-9.636 0,-5.30666 -3.2054,-9.636 -7.1374,-9.636 -3.9293,0 -7.1386,4.32934 -7.1386,9.636 0,5.30667 3.2093,9.636 7.1386,9.636"
         style="fill:#252428;fill-opacity:1;fill-rule:evenodd;stroke:none;stroke-width:0.133333" />
      <path
         id="path23"
         d="m 1912.5463,-358.17502 c -10.3546,4.212 -21.2693,4.89467 -31.8906,1.23334 -24.7454,-8.52534 -41.0347,-37.81867 -43.4907,-62.792 -1.2987,-13.208 1.2587,-28.28 11.3733,-37.71867 10.3907,-9.69466 24.656,-9.676 37.564,-5.848 14.928,4.42534 27.7814,16.49867 36.3,29.18134 10.6854,15.912 18.716,39.496 9.9587,57.95599 -4.068,8.572 -11.1093,14.44534 -19.8147,17.988"
         style="fill:#252428;fill-opacity:1;fill-rule:evenodd;stroke:none;stroke-width:0.133333" />
      <path
         id="path24"
         d="m 1911.0583,-361.82968 c -37.3066,15.17733 -66.6506,-24.52 -69.968,-58.28933 -2.5866,-26.29334 11.5414,-48.992 43.8934,-39.4 37.952,11.25466 69.672,79.95599 26.0746,97.68933"
         style="fill:#ffffff;fill-opacity:1;fill-rule:evenodd;stroke:none;stroke-width:0.133333" />
      <path
         id="path25"
         d="m 1911.0583,-361.82968 c -37.3066,15.17733 -66.6506,-24.52 -69.968,-58.28933 -2.016,-20.50667 6.1347,-38.82534 25.1667,-41.34534 -35.0027,27.98267 4.424,95.64133 50.604,77.52 6.1867,-2.42666 11.56,-6.188 15.24,-11.00133 0.3587,14.21466 -5.6333,26.848 -21.0427,33.116"
         style="fill:#babcba;fill-opacity:1;fill-rule:evenodd;stroke:none;stroke-width:0.133333" />
      <path
         id="path26"
         d="m 1814.6997,-497.80301 c -19.9867,29.26266 -42.8254,33.54533 -72.0894,24.26666 -29.2626,-9.27866 23.196,28.54934 64.592,14.988 41.3987,-13.56133 7.4974,-39.25466 7.4974,-39.25466"
         style="fill:#252428;fill-opacity:1;fill-rule:evenodd;stroke:none;stroke-width:0.133333" />
      <path
         id="path27"
         d="m 1848.4917,-497.80301 c 19.984,29.26266 42.8226,33.54533 72.0853,24.26666 29.2653,-9.27866 -23.196,28.54934 -64.5933,14.988 -41.396,-13.56133 -7.492,-39.25466 -7.492,-39.25466"
         style="fill:#252428;fill-opacity:1;fill-rule:evenodd;stroke:none;stroke-width:0.133333" />
      <path
         id="path28"
         d="m 1885.605,-403.23235 c 3.9333,0 7.1387,-4.32933 7.1387,-9.636 0,-5.30666 -3.2054,-9.636 -7.1387,-9.636 -3.932,0 -7.1373,4.32934 -7.1373,9.636 0,5.30667 3.2053,9.636 7.1373,9.636"
         style="fill:#252428;fill-opacity:1;fill-rule:evenodd;stroke:none;stroke-width:0.133333" />
      <path
         id="path29"
         d="m 1806.9317,-2.5110245 c 4.0546,-4.2521332 7.0986,-9.2786665 8.9546,-14.9734665 5.032,-15.427599 6.5027,-31.950532 4.24,-48.018532 -0.6946,-4.934666 -1.7346,-9.838666 -3.1773,-14.609333 -0.1067,-0.346667 -0.2107,-0.693333 -0.32,-1.038667 1.6067,-0.565333 3.2133,-1.214666 4.7107,-2.013333 2.4853,-1.325333 4.8333,-3.169333 5.596,-6.010666 1.0373,-3.861334 -1.372,-8.398667 -3.168,-11.697338 -1.3547,-2.488 -2.7947,-4.93066 -4.1747,-7.404 -1.6853,-3.016 -3.2893,-6.06266 -4.7507,-9.19333 -0.3666,-0.788 -1.2546,-1.172 -2.08,-0.9 -0.8266,0.27067 -1.316,1.104 -1.144,1.95734 l 4.2707,21.354661 c -5.1613,0.568 -10.3427,1.281333 -15.468,2.036 -12.4507,1.828 -24.932,4.073333 -37.1773,6.997333 -6.3054,1.508 -12.5907,3.209333 -18.7507,5.237333 -5.5173,1.817334 -11.0747,3.929334 -16.244,6.584 -11.6013,5.957333 -20.3333,15.178667 -24.3387,27.689333 -1.196,3.737333 -1.9293,7.669333 -2.1426,11.590666 -0.089,1.576 -0.1254,3.373334 0.052,4.947867 0.072,0.654666 0.4786,1.1776 1.0933,1.409333 0.6173,0.234933 1.2653,0.109467 1.7547,-0.333333 5.6666,-5.155733 11.3386,-10.306667 17.0053,-15.4612 2.792,-2.536 5.9747,-4.738666 9.188,-6.7 0.744,-0.453333 1.4973,-0.898666 2.2547,-1.333333 -2.0054,5.194667 -3.4534,10.606666 -4.4187,16.010666 -1.62,9.098533 -1.9613,18.538667 -0.9773,27.7291996 0.2266,2.1213333 0.836,4.1187999 1.7613,5.9682666 -6.9173,4.1691999 -11.376,8.1411998 -16.5373,15.7265328 -0.4547,0.671867 -0.388,1.543733 0.1666,2.136 0.5574,0.588 1.4254,0.7104 2.12,0.2932 4.5947,-2.736 9.1934,-5.4974665 13.8854,-8.0641331 25.268,-13.8290663 58.576,-16.6358662 81.9693,2.6136001 0.632,0.521333 1.52,0.526533 2.1587,0.0079 0.6373,-0.5120005 0.82,-1.3854671 0.4453,-2.1120004 -0.672,-1.2958667 -1.308,-2.6094666 -1.9533,-3.9161333 -0.4707,-0.9557333 -0.9534,-1.9062666 -1.536,-2.7969332 -0.896,-1.37240001 -2.0467,-2.5854666 -3.268,-3.7134666 z m 115.788,11.7051997 c 2.076,2.1467998 4.0573,4.6306668 6.1546,7.7145328 0.4547,0.668267 0.388,1.5416 -0.1666,2.132267 -0.5574,0.589067 -1.4254,0.7104 -2.12,0.297467 -17.0707,-10.1750668 -37.568,-19.51093324 -56.88,-19.94799989 -13.852,-0.31506666 -26.7347,4.42399989 -38.9747,14.49426589 -0.632,0.521334 -1.52,0.5256 -2.1587,0.01093 -0.6386,-0.516134 -0.82,-1.385334 -0.4453,-2.114534 0.6747,-1.297466 1.3067,-2.6067995 1.9533,-3.9177328 0.4707,-0.9546666 0.9534,-1.9051999 1.536,-2.7958666 1.3774,-2.1093332 3.3627,-3.8385332 5.2614,-5.4666665 3.1946,-2.7374666 6.708,-4.9691999 10.4733,-6.6999998 -3.4693,-5.8254663 -5.4533,-12.3281333 -5.6307,-19.3333333 -0.208,-8.466666 0.5947,-16.950532 2.38,-25.229199 1.628,-7.568 4.0787,-14.956 7.308,-21.989333 1.0107,-2.201333 2.0934,-4.373333 3.26,-6.497333 -3.5253,-1.128 -6.7906,-3.042666 -7.58,-6.442666 -0.612,-2.641334 0.456,-5.368 1.7187,-7.649334 1.448,-2.606666 3.3533,-5.067999 5.1613,-7.43466 1.12,-1.46667 2.2467,-2.932 3.2987,-4.45067 0.4227,-0.60933 1.152,-0.872 1.8653,-0.672 0.716,0.20133 1.2,0.80533 1.2454,1.544 l 0.6893,11.72133 c 1.5627,0.209334 3.136,0.464 4.68,0.709334 7.044,1.121333 14.076,2.426666 21.0773,3.773333 21.1174,4.062667 45.7787,12.88 59.0347,30.811999 1.7973,2.432 3.456,4.977333 5,7.576 3.3147,5.572 6.3987,11.814666 8.5187,17.950666 0.744,2.147867 1.4786,4.564 1.744,6.828 0.196,1.661467 0.196,3.885467 -1.4374,4.872 -1.4893,0.901467 -3.1933,0.09053 -4.4613,-0.802667 -1.8333,-1.290666 -3.6067,-3.222933 -5.0693,-4.907866 -4.3267,-4.974933 -11.5427,-11.096267 -20.1747,-17.377466 3.2333,17.104132 0.112,36.0623986 -6.308,51.3691982 -0.2787,0.664 -0.596,1.3068 -0.9533,1.924 v 0"
         style="fill:#252428;fill-opacity:1;fill-rule:evenodd;stroke:none;stroke-width:0.133333" />
      <path
         id="path30"
         d="m 1750.717,-75.524356 c 5.1907,-3.268 11.016,-5.609333 16.884,-7.338667 9.14,-2.691999 18.9027,-4.077333 28.4053,-4.666666 4.4454,-0.273333 9.1494,-0.437333 13.6067,-0.244 1.6773,0.072 3.0707,1.033333 3.7373,2.572 0.7654,1.774667 1.404,3.74 1.964,5.584 1.416,4.677333 2.4374,9.516 3.12,14.354666 2.2254,15.809333 0.7787,32.066533 -4.172,47.246666 -2.292,7.031866 -6.4666,12.9771992 -12.164,17.66933243 -1.4066,1.15573331 -3.292,1.31039997 -4.8653,0.39319999 -16.4787,-9.59319972 -42.0627,-5.90413322 -58.656,1.46146668 -1.7373,0.7707999 -3.6933,0.3411999 -4.9453,-1.08960002 -2.3094,-2.63439998 -3.836,-5.75466648 -4.2107,-9.25199978 -0.9667,-9.0103993 -0.6307,-18.3302663 0.96,-27.2505323 2.5733,-14.434533 8.7013,-28.9972 19.7453,-38.991866 0.196,-0.174667 0.372,-0.309333 0.5907,-0.448"
         style="fill:#252428;fill-opacity:1;fill-rule:evenodd;stroke:none;stroke-width:0.133333" />
      <path
         id="path31"
         d="m 1752.993,-71.909689 c -16.2333,14.687999 -21.6453,40.974665 -19.3253,62.619998 0.2733,2.5571999 1.4013,4.8666665 3.1773,6.8931998 14.9893,-6.6531998 43.1253,-12.5521328 62.536,-1.2505333 4.86,-3.9999999 8.6987,-9.1838665 10.8213,-15.6921325 11.596,-35.562533 -0.7733,-64.166532 -0.7733,-64.166532 0,0 -35.5627,-1.546667 -56.436,11.596"
         style="fill:#ffffff;fill-opacity:1;fill-rule:evenodd;stroke:none;stroke-width:0.133333" />
      <path
         id="path32"
         d="m 1752.993,-71.909689 c -9.44,8.543999 -15.2213,21.010666 -17.9493,34.203865 21.94,-17.362533 48.7653,-25.887866 77.0253,-37.597199 -1.3547,-5.224 -2.64,-8.202666 -2.64,-8.202666 0,0 -35.5627,-1.546667 -56.436,11.596"
         style="fill:#babcba;fill-opacity:1;fill-rule:evenodd;stroke:none;stroke-width:0.133333" />
      <path
         id="path33"
         d="m 1912.8117,11.964975 c -15.188,-13.0171995 -36.5654,-15.5041328 -55.7014,-12.4469329 -1.508,0.23906666 -2.916,-0.27599999 -3.9106,-1.4358666 -5.9947,-6.9677332 -9.5374,-15.2879995 -9.7654,-24.5573325 -0.3986,-15.959867 2.8694,-31.954533 9.528,-46.465199 2.0387,-4.44 4.404,-8.781333 7.0987,-12.857333 1.0627,-1.609333 2.2373,-3.309333 3.48,-4.789333 1.0773,-1.282667 4.388,3.166666 6.012,3.578666 4.3267,1.090667 7.092,-2.377333 11.2733,-0.844 8.936,3.284 17.8907,7.406667 25.8787,12.604 5.1267,3.336 10.0413,7.248 14.0747,11.862666 0.172,0.194667 0.3053,0.374667 0.4373,0.596 12.2293,20.169333 9.696,48.374399 0.8813,69.3983986 -0.816,1.9401333 -2.0053,3.6614664 -3.496,5.1426664 -1.5826,1.573467 -4.096,1.664133 -5.7906,0.2136"
         style="fill:#252428;fill-opacity:1;fill-rule:evenodd;stroke:none;stroke-width:0.133333" />
      <path
         id="path34"
         d="m 1917.5663,-60.57369 c 11.3494,18.721333 9.0107,45.453199 0.592,65.5318653 -0.6,1.4292 -1.4746,2.6759999 -2.5653,3.7625332 -17.2533,-14.7890663 -40.7533,-16.3625329 -59.1573,-13.4239996 -5.156,-5.9931999 -8.52,-13.3291999 -8.7307,-21.8786659 -0.9333,-37.393066 19.1067,-61.257065 19.1067,-61.257065 0,0 34.5173,8.697333 50.7546,27.265332"
         style="fill:#ffffff;fill-opacity:1;fill-rule:evenodd;stroke:none;stroke-width:0.133333" />
      <path
         id="path35"
         d="m 1917.5663,-60.57369 c 5.144,8.484 7.4774,18.614666 7.7027,29.024 -0.6133,-1.0656 -0.984,-1.6776 -0.984,-1.6776 0,0 -27.1773,-24.207733 -65.4533,-41.950399 4.2013,-8.156 7.98,-12.661333 7.98,-12.661333 0,0 34.5173,8.697333 50.7546,27.265332"
         style="fill:#babcba;fill-opacity:1;fill-rule:evenodd;stroke:none;stroke-width:0.133333" />
      <path
         id="path36"
         d="m 1813.2957,-116.74835 c 10.8226,23.193328 23.1906,29.378661 -5.4147,36.335994 -28.604,6.956 -70.348,19.325333 -87.356,34.786666 -17.008,15.464133 -17.008,15.464133 -17.008,15.464133 0,0 -3.0907,-27.830799 25.5133,-42.521466 28.6014,-14.686666 88.9014,-20.871999 88.9014,-20.871999 l -4.636,-23.193328"
         style="fill:#252428;fill-opacity:1;fill-rule:evenodd;stroke:none;stroke-width:0.133333" />
      <path
         id="path37"
         d="m 1858.673,-105.15102 c -6.956,10.049331 -20.0987,21.645331 3.092,24.735997 23.192,3.094667 74.216,34.789333 89.6787,52.570666 15.4613,17.781199 6.1853,-11.595867 -6.9574,-29.377333 -13.144,-17.781333 -37.8813,-26.283999 -57.9826,-30.147999 -20.0987,-3.868 -27.0574,-4.638667 -27.0574,-4.638667 l -0.7733,-13.142664"
         style="fill:#252428;fill-opacity:1;fill-rule:evenodd;stroke:none;stroke-width:0.133333" />
      <path
         id="path38"
         d="m 1714.3557,14.005108 c 5.984,-8.792266 10.752,-12.4297326 20.1746,-17.6119992 20.6774,-11.3734668 49.8467,-16.0109328 69.2987,0.6426667 5.5507,4.7505332 4.9827,5.1770665 8.3413,11.664133 -14.0253,-11.541733 -22.6226,-16.4031996 -41.6506,-14.9323996 -25.396,1.9614666 -35.2,7.7427998 -56.164,20.2375991"
         style="fill:#252428;fill-opacity:1;fill-rule:evenodd;stroke:none;stroke-width:0.133333" />
      <path
         id="path39"
         d="m 1927.4623,17.869108 c -20.964,-12.4947994 -30.7706,-18.2734659 -56.164,-20.2374659 -19.0293,-1.4682666 -27.6253,3.3906666 -41.6506,14.9333329 3.3586,-6.4879997 2.7906,-6.9119997 8.3413,-11.66413293 19.4547,-16.65466607 48.6213,-12.01613307 69.3013,-0.64373332 9.4227,5.18226655 14.188,8.81986645 20.172,17.61199925"
         style="fill:#252428;fill-opacity:1;fill-rule:evenodd;stroke:none;stroke-width:0.133333" />
      <path
         id="path40"
         d="m 1779.6237,-29.093957 c 4.2573,0 7.7293,-4.688 7.7293,-10.438533 0,-5.746533 -3.472,-10.434533 -7.7293,-10.434533 -4.2574,0 -7.732,4.688 -7.732,10.434533 0,5.750533 3.4746,10.438533 7.732,10.438533"
         style="fill:#252428;fill-opacity:1;fill-rule:evenodd;stroke:none;stroke-width:0.133333" />
      <path
         id="path41"
         d="m 1872.9343,-26.776224 c 4.2574,0 7.7307,-4.688 7.7307,-10.4348 0,-5.750666 -3.4733,-10.437333 -7.7307,-10.437333 -4.2586,0 -7.732,4.686667 -7.732,10.437333 0,5.7468 3.4734,10.4348 7.732,10.4348"
         style="fill:#252428;fill-opacity:1;fill-rule:evenodd;stroke:none;stroke-width:0.133333" />
      <path
         id="path42"
         d="m 1180.3197,-476.40701 c 7.9293,-4.48934 15.9266,-8.90267 24.06,-13.01734 6.3613,-3.22133 12.9213,-6.344 19.604,-8.84933 6.82,-2.55733 19.0346,-6.612 25.4693,-1.248 1.9893,1.65867 3.1293,3.936 3.7227,6.424 0.2253,0.948 0.2586,1.92 0.067,2.876 -1.0333,5.19867 -8.196,8.052 -12.6173,9.51467 -3.5573,1.176 -7.2587,2.052 -10.9307,2.784 -4.0746,0.812 -8.192,1.45066 -12.312,1.98933 -8.1986,1.07333 -16.484,1.76533 -24.7413,2.23733 -3.8013,0.216 -7.6347,0.404 -11.4437,0.484 -0.7927,0.016 -1.4724,-0.492 -1.6823,-1.256 -0.2109,-0.764 0.1145,-1.548 0.8047,-1.93866 z m 171.044,3.19466 c -3.8067,-0.08 -7.64,-0.268 -11.444,-0.484 -8.256,-0.472 -16.5387,-1.164 -24.74,-2.23733 -4.1187,-0.53867 -8.2374,-1.17733 -12.3134,-1.98933 -3.6706,-0.732 -7.3706,-1.608 -10.9266,-2.784 -4.4227,-1.46267 -11.5867,-4.316 -12.62,-9.51467 -0.1894,-0.956 -0.156,-1.928 0.068,-2.876 0.5933,-2.488 1.732,-4.76533 3.724,-6.424 6.4333,-5.364 18.6466,-1.30933 25.468,1.248 6.6813,2.50533 13.24,5.628 19.6053,8.84933 8.1293,4.11467 16.128,8.528 24.056,13.01734 0.6907,0.39066 1.0173,1.17466 0.808,1.93866 -0.2107,0.764 -0.8907,1.272 -1.6853,1.256 z m -85.0814,59.34667 c -0.2413,5.112 -1.2533,10.20267 -2.8066,15.056 -2.9294,9.152 -7.02,18.11466 -12.1267,26.25866 -8.1813,13.044 -19.98,25.31334 -35.3307,29.308 -13.1506,3.42134 -25.8653,-0.0333 -37.2128,-7.00266 -11.9009,-7.312 -20.5509,-17.89734 -22.5129,-32.01734 -2.3688,-17.05333 5.7161,-34.37199 16.2943,-47.29733 7.5348,-9.208 17.3821,-17.53866 28.1808,-22.63066 16.9733,-8.00267 38.48,-6.80534 52.7533,6.08666 5.4387,4.91467 9.256,11 11.2413,18.05867 0.8747,3.11733 1.3627,6.308 1.52,9.51733 0.1547,-3.20933 0.6427,-6.4 1.5174,-9.51733 1.9853,-7.05867 5.8026,-13.144 11.2413,-18.05867 14.2733,-12.892 35.7827,-14.08933 52.7547,-6.08666 10.7973,5.092 20.6453,13.42266 28.18,22.63066 21.1346,25.82267 25.4493,59.86 -6.2187,79.31467 -12.6427,7.76533 -26.884,10.984 -41.16,5.76933 -21.8827,-7.99333 -36.736,-33.176 -43.5107,-54.33333 -1.5533,-4.85333 -2.564,-9.944 -2.804,-15.056 v 0"
         style="fill:#252428;fill-opacity:1;fill-rule:evenodd;stroke:none;stroke-width:0.133333" />
      <path
         id="path43"
         d="m 1351.3997,-474.92035 c -40.9734,-23.19333 -66.484,-34.016 -70.3494,-17.78133 -3.8653,16.23467 70.3494,17.78133 70.3494,17.78133"
         style="fill:#252428;fill-opacity:1;fill-rule:evenodd;stroke:none;stroke-width:0.133333" />
      <path
         id="path44"
         d="m 1331.0663,-450.64568 c 10.5547,4.976 20.2267,13.17333 27.588,22.168 20.3987,24.924 25.0307,57.84266 -5.792,76.77466 -12.228,7.512 -25.876,10.66267 -39.6786,5.62134 -21.332,-7.79334 -35.8654,-32.62134 -42.4694,-53.25067 -5.1826,-16.18 -3.7106,-33.59333 9.472,-45.504 13.7694,-12.436 34.5414,-13.51333 50.88,-5.80933"
         style="fill:#252428;fill-opacity:1;fill-rule:evenodd;stroke:none;stroke-width:0.133333" />
      <path
         id="path45"
         d="m 1329.2423,-446.78168 c 31.7747,14.98133 63.0987,65.81466 21.3854,91.44 -39.2587,24.11466 -66.3107,-15.516 -75.8454,-45.292 -12.872,-40.19733 24.656,-60.20133 54.46,-46.148"
         style="fill:#ffffff;fill-opacity:1;fill-rule:evenodd;stroke:none;stroke-width:0.133333" />
      <path
         id="path46"
         d="m 1321.6383,-391.04168 c 4.2574,0 7.732,-4.688 7.732,-10.436 0,-5.74933 -3.4746,-10.43733 -7.732,-10.43733 -4.2586,0 -7.7306,4.688 -7.7306,10.43733 0,5.748 3.472,10.436 7.7306,10.436"
         style="fill:#252428;fill-opacity:1;fill-rule:evenodd;stroke:none;stroke-width:0.133333" />
      <path
         id="path47"
         d="m 1274.7823,-400.63368 c 9.5347,29.776 36.5867,69.40666 75.8454,45.292 14.3186,-8.79734 20.0306,-20.564 20.0733,-32.83333 -15.5227,14.78933 -39.016,24.44666 -64.3547,7.28933 -27.0853,-18.33867 -28.6426,-42.48533 -25.9853,-58.05333 -7.6613,8.73733 -10.856,21.824 -5.5787,38.30533"
         style="fill:#babcba;fill-opacity:1;fill-rule:evenodd;stroke:none;stroke-width:0.133333" />
      <path
         id="path48"
         d="m 1181.1623,-474.92035 c 40.9734,-23.19333 66.484,-34.016 70.3507,-17.78133 3.864,16.23467 -70.3507,17.78133 -70.3507,17.78133"
         style="fill:#252428;fill-opacity:1;fill-rule:evenodd;stroke:none;stroke-width:0.133333" />
      <path
         id="path49"
         d="m 1201.497,-450.64568 c 16.34,-7.704 37.112,-6.62667 50.8787,5.80933 13.1826,11.91067 14.6533,29.324 9.4733,45.504 -2.8787,8.988 -6.936,17.87867 -11.948,25.87333 -16.4307,26.19467 -41.3507,39.47867 -70.2012,21.756 -11.4661,-7.04266 -19.8255,-17.19333 -21.7145,-30.796 -2.3011,-16.56133 5.6625,-33.44266 15.9229,-45.97866 7.3621,-8.99467 17.0341,-17.192 27.5888,-22.168"
         style="fill:#252428;fill-opacity:1;fill-rule:evenodd;stroke:none;stroke-width:0.133333" />
      <path
         id="path50"
         d="m 1203.3183,-446.78168 c -31.7721,14.98133 -63.0961,65.81466 -21.3813,91.44 39.256,24.11466 66.3093,-15.516 75.844,-45.292 12.8693,-40.19733 -24.6573,-60.20133 -54.4627,-46.148"
         style="fill:#ffffff;fill-opacity:1;fill-rule:evenodd;stroke:none;stroke-width:0.133333" />
      <path
         id="path51"
         d="m 1210.9237,-391.04168 c 4.26,0 7.732,-4.688 7.732,-10.436 0,-5.74933 -3.472,-10.43733 -7.732,-10.43733 -4.2574,0 -7.732,4.688 -7.732,10.43733 0,5.748 3.4746,10.436 7.732,10.436"
         style="fill:#252428;fill-opacity:1;fill-rule:evenodd;stroke:none;stroke-width:0.133333" />
      <path
         id="path52"
         d="m 1181.937,-355.34168 c 39.256,24.11466 66.3093,-15.516 75.844,-45.292 4.0133,-12.536 3.1253,-23.10667 -0.9013,-31.29467 -1.7747,17.05067 -11.2027,38.95734 -33.2747,50.13867 -30.1347,15.26933 -62.4129,-5.17067 -49.8661,-39.424 -15.0834,21.28667 -19.2266,49.02666 8.1981,65.872"
         style="fill:#babcba;fill-opacity:1;fill-rule:evenodd;stroke:none;stroke-width:0.133333" />
      <path
         id="path53"
         d="m 1583.9383,-360.16968 c 1.308,-0.22934 2.672,-0.37067 3.9934,-0.512 2.1426,-0.23067 4.288,-0.43067 6.4346,-0.62 5.62,-0.49867 11.244,-0.936 16.8694,-1.35867 9.4866,-0.71067 18.9893,-1.39467 28.4866,-1.99867 1.404,-0.088 2.4827,-1.31066 2.3934,-2.716 -0.088,-1.40533 -1.3094,-2.48266 -2.716,-2.39466 -9.5547,0.60266 -19.12,1.296 -28.6694,2.01333 -5.6586,0.424 -11.3173,0.864 -16.968,1.36667 -2.172,0.19466 -4.344,0.396 -6.5133,0.63066 -1.388,0.14934 -2.82,0.3 -4.196,0.54134 -1.3907,0.24666 -2.3227,1.572 -2.08,2.96533 0.244,1.39467 1.5747,2.32933 2.9653,2.08267 z m -118.0533,-5.16534 c -1.4133,-0.032 -2.532,-1.20666 -2.4987,-2.61733 0.033,-1.412 1.2067,-2.53067 2.6187,-2.49867 13.1693,0.31067 26.364,0.684 39.5213,1.35467 3.6014,0.184 7.244,0.36533 10.8347,0.69067 1.4013,0.12666 2.444,1.37866 2.3187,2.77866 -0.128,1.4 -1.3787,2.444 -2.78,2.31734 -3.5387,-0.32 -7.1307,-0.49867 -10.6787,-0.67867 -13.0933,-0.668 -26.2307,-1.03733 -39.336,-1.34667 z m 98.8613,-47.79066 c -0.8653,-0.37067 -1.716,-0.76667 -2.552,-1.18533 -0.896,-0.45067 -1.9093,-0.97734 -2.74,-1.54667 -0.4426,-0.304 -0.9946,-0.30667 -1.4373,-0.008 -0.4453,0.29867 -0.6533,0.80933 -0.5413,1.33333 1.0386,4.84667 3.4973,9.008 7.5226,11.95067 8.284,6.05067 20.3707,5.12 29.2974,1.07867 4.2,-1.90134 8.0933,-4.62 11.148,-8.092 3.4826,-3.956 6.2426,-8.43734 8.6413,-13.11467 3.1613,-6.16667 5.6613,-12.61867 8.5987,-18.88533 2.612,-5.57734 5.7,-11.26667 10.1426,-15.60934 4.3267,-4.228 9.396,-6.63066 15.344,-7.636 5.5814,-0.94266 11.0894,-0.40933 16.128,2.276 4.1307,2.204 7.4454,5.58 10.0627,9.424 2.1853,3.21334 3.9213,6.79867 5.2373,10.45334 0.5614,1.56666 1.132,3.32133 1.4787,4.95733 0.136,0.64 0.7213,1.07067 1.3747,1.00933 0.6493,-0.0613 1.1466,-0.59333 1.1586,-1.248 0.1174,-5.34 -0.304,-10.72533 -1.46,-15.94533 -0.992,-4.49067 -2.5373,-8.884 -4.7586,-12.91733 -3.8414,-6.968 -9.62,-12.63334 -17.1814,-15.376 -4.8293,-1.752 -9.9426,-2.13734 -15.0053,-1.332 -5.756,0.91333 -11.1693,3.30666 -16.008,6.50933 -13.4293,8.888 -23.0133,24.15333 -29.368,38.62933 -4.3173,9.83734 -11.3933,19.824 -22.572,22.11334 -2.9067,0.596 -5.9307,0.62 -8.8493,0.0907 -1.1174,-0.20266 -2.516,-0.53333 -3.568,-0.98666 -0.52,-0.22534 -1.1067,-0.092 -1.476,0.34 -0.372,0.43066 -0.42,1.02666 -0.1227,1.51066 0.476,0.77067 0.9587,1.51334 1.5053,2.20667 z m 40.6174,30.44666 c 9.664,-0.58666 19.8413,-0.37066 29.244,1.52534 2.6253,0.53066 5.2973,1.20666 7.8106,2.13733 0.6587,0.24267 1.3227,0.508 1.956,0.812 0.6267,0.30133 1.3334,0.628 1.3334,1.49467 0,0.65333 -0.488,1.19866 -1.1387,1.272 -6.5413,0.752 -13.076,1.548 -19.6093,2.392 -4.1307,0.53333 -8.2574,1.09066 -12.3934,1.576 -10.6453,1.24933 -21.3853,1.86666 -32.0826,2.468 -0.4227,0.0253 -0.7947,-0.13734 -1.0627,-0.46267 -0.268,-0.32533 -0.3573,-0.72133 -0.2533,-1.13067 1.5266,-6.02 5.904,-12.116 9.9346,-16.73333 5.316,-6.08933 11.704,-11.59333 18.332,-16.208 11.0307,-7.68266 29.5,-17.20933 43.2854,-12.82266 0.524,0.16533 0.8733,0.62 0.8933,1.16933 0.021,0.548 -0.2867,1.028 -0.7933,1.23733 -11.0187,4.51867 -20.792,10.17334 -30.1227,17.568 -5.3773,4.26267 -10.4227,8.91734 -15.3333,13.70533 z m -109.544,-1.80933 c -9.6614,-0.58533 -19.8387,-0.36933 -29.2427,1.52667 -2.6227,0.528 -5.296,1.20666 -7.8093,2.136 -0.6587,0.244 -1.3227,0.50933 -1.956,0.812 -0.628,0.30133 -1.3334,0.628 -1.3334,1.496 0,0.65333 0.4854,1.19733 1.136,1.272 6.544,0.752 13.0787,1.54666 19.612,2.39066 4.128,0.53334 8.2574,1.09067 12.3947,1.576 10.6453,1.252 21.384,1.86667 32.0813,2.47067 0.4227,0.0227 0.7947,-0.14 1.0627,-0.46533 0.268,-0.32534 0.3573,-0.72134 0.2533,-1.12934 -1.5253,-6.02 -5.904,-12.11599 -9.9346,-16.73333 -5.316,-6.09066 -11.704,-11.59333 -18.332,-16.208 -11.0307,-7.68133 -29.4987,-17.20933 -43.2867,-12.824 -0.5253,0.16667 -0.8707,0.62 -0.892,1.16934 -0.023,0.548 0.2853,1.02933 0.7933,1.23733 11.0187,4.52 20.7907,10.17467 30.1227,17.57067 5.3773,4.26 10.4213,8.91466 15.3307,13.70266 z m 43.1146,-28.432 c 1.0827,-0.50266 2.1374,-1.06133 3.144,-1.67733 0.8294,-0.50533 1.8547,-1.16933 2.5787,-1.82933 0.4187,-0.38134 1.0093,-0.44667 1.5013,-0.164 0.492,0.28266 0.7347,0.82533 0.6147,1.38 -1.0653,4.976 -3.6067,9.23733 -7.7467,12.24533 -8.3413,6.06133 -20.436,5.27733 -29.4133,1.13067 -3.992,-1.844 -7.668,-4.45067 -10.5813,-7.76 -5.7787,-6.56534 -9.4667,-13.75734 -13.112,-21.61467 -2.8054,-6.05467 -5.7387,-12.94 -10.3347,-17.86133 -3.9493,-4.23334 -8.6853,-6.536 -14.3373,-7.636 -5.3134,-1.03334 -10.5174,-0.468 -15.5454,1.5 -4.492,1.75866 -8.5706,4.52933 -12.152,7.736 -2.916,2.608 -5.576,5.564 -7.9213,8.69066 -0.9787,1.30267 -2.0053,2.73334 -2.8293,4.144 -0.3294,0.56134 -1.0134,0.788 -1.612,0.53067 -0.5974,-0.25467 -0.9054,-0.908 -0.7254,-1.53333 3.1267,-10.82534 8.128,-21.91467 15.3894,-30.616 5.7933,-6.944 13.5306,-12.86 22.7493,-13.98267 8.9213,-1.08533 17.0053,2.63733 23.652,8.35333 9.9053,8.52134 17.2107,21.676 22.3947,33.484 4.272,9.73334 11.3186,19.672 22.5266,21.54267 2.9267,0.488 5.9494,0.37733 8.8414,-0.27867 1.1253,-0.256 2.5213,-0.64933 3.572,-1.15466 0.5213,-0.25067 1.1226,-0.132 1.5093,0.29733 0.3853,0.43067 0.44,1.04 0.1373,1.532 -0.732,1.18267 -1.472,2.41067 -2.3,3.54133 v 0"
         style="fill:#252428;fill-opacity:1;fill-rule:evenodd;stroke:none;stroke-width:0.133333" />
      <path
         id="path54"
         d="m 1540.1437,-417.13635 c -2.3627,3.824 -2.6134,4.13734 -5.6414,7.27867 7.332,-2.25867 11.0174,-5.62133 11.0174,-5.62133 -4.3667,20.38133 -32.8067,19.48933 -45.5254,5.03733 -17.008,-19.32667 -14.6733,-42.88533 -38.5013,-47.52267 -23.828,-4.63866 -39.8013,22.68134 -39.8013,22.68134 13.3386,-46.16667 52.824,-68.564 81.7813,-2.60267 13.916,31.696 36.6707,20.74933 36.6707,20.74933"
         style="fill:#252428;fill-opacity:1;fill-rule:evenodd;stroke:none;stroke-width:0.133333" />
      <path
         id="path55"
         d="m 1450.8517,-416.94701 c 22.6573,-7.20534 64.8613,24.876 69.924,44.85866 -34.2867,-1.932 -29.828,-2.504 -64.0147,-6.42933 0,-0.005 12.7067,-6.84533 42.4373,-4.44534 -14.5453,-14.41599 -27.364,-25.37866 -48.3466,-33.98399"
         style="fill:#252428;fill-opacity:1;fill-rule:evenodd;stroke:none;stroke-width:0.133333" />
      <path
         id="path56"
         d="m 1650.3317,-415.13901 c -22.656,-7.204 -64.8587,24.87733 -69.9214,44.85866 34.2867,-1.932 29.828,-2.504 64.0134,-6.42933 0,-0.005 -12.7067,-6.84533 -42.4347,-4.44534 14.544,-14.41333 27.364,-25.37866 48.3427,-33.98399"
         style="fill:#252428;fill-opacity:1;fill-rule:evenodd;stroke:none;stroke-width:0.133333" />
      <path
         id="path57"
         d="m 1564.3317,-416.00701 c 2.3653,3.824 2.612,3.008 5.644,6.14933 -7.3334,-2.25867 -11.248,-4.94267 -11.248,-4.94267 4.3706,20.38134 33.0373,18.81067 45.756,4.35867 17.0053,-19.32667 16.028,-51.02267 43.4733,-55.66133 27.4427,-4.63734 34.372,28.10666 34.372,28.10666 1.1333,-52.948 -52.3693,-65.85066 -81.3253,0.11067 -13.916,31.696 -36.672,21.87867 -36.672,21.87867"
         style="fill:#252428;fill-opacity:1;fill-rule:evenodd;stroke:none;stroke-width:0.133333" />
      <path
         id="path58"
         d="m 1465.9143,-366.61635 c -0.7053,-0.016 -1.264,-0.60133 -1.2466,-1.30667 0.017,-0.704 0.6026,-1.26266 1.3053,-1.24666 38.4733,0.90533 50.2373,2.03733 50.272,2.04133 0.7027,0.0627 1.22,0.68267 1.1573,1.38667 -0.064,0.70133 -0.6853,1.21866 -1.3866,1.15466 -0.036,-0.003 -11.712,-1.12533 -50.1014,-2.02933"
         style="fill:#252428;fill-opacity:1;fill-rule:evenodd;stroke:none;stroke-width:0.133333" />
      <path
         id="path59"
         d="m 1583.717,-361.43102 c -0.6947,0.12134 -1.3613,-0.34533 -1.4813,-1.04133 -0.1227,-0.69733 0.344,-1.36133 1.0413,-1.48133 7.7373,-1.36667 56.0653,-4.528 56.204,-4.53734 0.7053,-0.044 1.312,0.49067 1.356,1.19734 0.044,0.704 -0.492,1.312 -1.1947,1.356 -0.1386,0.009 -48.2893,3.15866 -55.9253,4.50666"
         style="fill:#252428;fill-opacity:1;fill-rule:evenodd;stroke:none;stroke-width:0.133333" />
      <g
         id="g121"
         inkscape:label="Observe">
        <path
           id="path60"
           d="m 922.19217,413.42811 c -0.0864,-2.66981 -1.9687,-4.86421 -4.60488,-5.3348 -2.63617,-0.47055 -5.16672,0.93635 -6.16069,3.42368 -6.33355,15.83146 -12.68147,31.54767 -19.60086,47.14385 -9.65157,21.76645 -20.20106,43.32161 -32.19108,63.91643 -13.39216,23.01489 -30.34723,48.10897 -50.56752,65.65949 -2.05514,1.77185 -2.53051,4.68652 -1.16201,7.0298 1.36851,2.34806 4.15353,3.35161 6.70806,2.42967 49.23262,-17.73296 81.92792,-63.48907 97.22638,-111.92939 7.32269,-23.20216 11.02486,-47.98894 10.3526,-72.33873 z m -394.9076,67.3833 c -0.7875,-2.36248 -2.9483,-3.87021 -5.44042,-3.80301 -2.48734,0.0623 -4.56649,1.68542 -5.22435,4.08632 -7.30829,26.40018 -0.28342,55.51334 13.21451,78.72511 14.61179,25.1037 39.34095,47.51839 68.81904,52.29134 3.54371,0.58101 7.12585,0.89313 10.71756,0.92194 2.49691,0.018 4.6145,-1.52217 5.3684,-3.89422 0.75866,-2.37209 -0.0962,-4.84981 -2.13199,-6.27594 -14.18925,-9.83405 -27.72067,-20.47958 -39.31214,-33.33871 -22.67881,-25.16132 -35.4227,-56.98269 -46.01061,-88.71283 z M 857.50746,135.6934 c -44.81018,-16.39326 -93.77385,-17.5745 -140.3655,-9.03214 -15.86985,2.90988 -31.66291,6.95299 -46.95176,12.1245 -5.95419,2.00713 -12.26372,4.24957 -18.00665,6.84732 -2.38167,1.0804 -5.09949,0.40335 -6.70327,-1.65661 -1.60382,-2.06476 -1.58459,-4.869 0.0479,-6.90977 6.50641,-8.13419 13.75708,-16.11956 20.90213,-23.68715 15.34167,-16.239592 32.04706,-31.883778 49.94327,-45.280732 12.98881,-9.718806 27.31729,-18.784546 42.41889,-24.820378 13.8195,-5.531646 29.10834,-8.74886 43.94583,-5.848563 40.69026,7.966146 55.6718,56.891426 62.1686,92.006823 0.38412,2.02633 -0.30719,3.94706 -1.87751,5.28193 -1.57498,1.32529 -3.59172,1.68063 -5.52203,0.97477 z M 589.58278,274.90169 c 2.27126,-3.19319 4.60492,-6.34316 7.00582,-9.4451 21.05576,-27.22128 47.60478,-51.48943 77.62548,-68.45411 28.61381,-16.16757 61.56358,-26.08805 94.63821,-23.03412 41.78024,3.85101 74.85966,27.19247 99.03662,60.5552 40.46936,55.83023 33.23788,135.46287 13.03683,197.59784 -18.16512,55.84945 -58.40882,129.34543 -112.22229,157.27736 -43.14878,22.3955 -91.85319,28.67622 -136.32723,6.06464 -50.72595,-25.79032 -79.63265,-80.45375 -88.07896,-134.99232 -10.11254,-65.22732 7.22665,-131.95276 45.28552,-185.56939 z M 501.3982,421.20216 c 0.11056,-2.7754 -1.77186,-5.1763 -4.50408,-5.7093 -2.71782,-0.53299 -5.37319,0.96516 -6.31915,3.57252 -5.79091,15.9803 -13.10402,31.62449 -20.97412,46.67805 -8.84487,16.92626 -18.6213,33.42519 -29.03156,49.4343 -13.24808,20.34993 -27.71585,40.23407 -43.41283,58.77373 -12.58068,14.8663 -27.01481,30.30881 -42.55816,42.10198 -2.08395,1.58459 -2.79464,4.31199 -1.72864,6.71288 1.07082,2.39129 3.56294,3.70217 6.13667,3.21718 43.64814,-8.26387 82.32644,-57.04988 103.67996,-93.08243 18.65008,-31.47564 37.15613,-74.73484 38.71191,-111.69891 z m -397.59184,59.39799 c -0.24957,-2.71303 -2.35289,-4.81138 -5.065883,-5.04669 -2.703411,-0.24489 -5.142701,1.44536 -5.867758,4.06713 -9.036966,32.65688 -12.556655,65.81794 4.499252,96.73177 6.568829,11.8988 19.231109,24.9452 29.670189,33.50679 13.43534,11.02966 34.73603,24.19134 52.64664,16.77259 1.75745,-0.72505 2.93869,-2.1416 3.33246,-4.00468 0.38894,-1.85829 -0.11993,-3.63014 -1.43096,-5.00826 -5.95898,-6.22789 -13.01759,-10.74155 -19.13506,-16.66697 -34.93292,-33.88612 -54.13043,-71.26794 -58.64888,-120.35168 z M 438.19241,135.6934 c -44.81015,-16.39326 -93.77868,-17.5745 -140.37031,-9.03214 -15.86506,2.90988 -31.66291,6.95299 -46.94217,12.1245 -5.95898,2.00713 -12.27334,4.24957 -18.00184,6.84732 -2.3817,1.0804 -5.1091,0.40335 -6.71288,-1.65661 -1.60861,-2.06476 -1.57979,-4.869 0.0479,-6.90977 6.51121,-8.13419 13.75709,-16.11956 20.90213,-23.68715 15.34646,-16.239592 32.04224,-31.883778 49.94806,-45.280732 12.9792,-9.718806 27.31251,-18.784546 42.4093,-24.820378 13.83394,-5.531646 29.12278,-8.74886 43.95547,-5.848563 40.69023,7.966146 55.66219,56.891426 62.16857,92.006823 0.37937,2.02633 -0.31223,3.94706 -1.88227,5.28193 -1.57501,1.32529 -3.59175,1.68063 -5.52207,0.97477 z M 147.4545,313.57517 c 25.92477,-53.97676 67.95472,-100.78925 124.39,-123.31439 44.93501,-17.92984 97.62971,-18.44361 139.94295,6.83774 15.53376,9.28661 28.73862,21.52156 39.10088,36.35422 39.11525,55.99834 30.86579,136.50009 10.84721,198.03004 -18.25637,56.12315 -58.22633,129.82559 -112.34236,157.91598 -43.14875,22.3955 -91.85799,28.67622 -136.32724,6.06464 -44.91098,-22.82282 -72.91976,-68.62215 -84.42,-116.43343 -13.28171,-55.16282 -5.6757,-114.47913 18.80856,-165.4548 v 0"
           style="fill:#252428;fill-opacity:1;fill-rule:evenodd;stroke:none;stroke-width:0.480176" />
        <path
           id="path61"
           d="m 152.48196,315.98569 c 25.31974,-52.69951 66.31251,-98.54685 121.4273,-120.54378 43.41765,-17.32003 94.09561,-18.00187 135.01635,6.44876 14.87588,8.89291 27.46134,20.55161 37.38662,34.76006 38.02527,54.43294 29.54053,133.40294 10.11732,193.1082 -17.69453,54.38493 -56.84342,127.29987 -109.6053,154.68922 -41.5354,21.55995 -88.39593,27.82148 -131.23255,6.04542 -43.41765,-22.07375 -70.40366,-66.56702 -81.52936,-112.7649 -12.98882,-53.95274 -5.51724,-111.89576 18.41962,-161.74298"
           style="fill:#252428;fill-opacity:1;fill-rule:evenodd;stroke:none;stroke-width:0.480176" />
        <path
           id="path62"
           d="M 165.0626,322.02631 C 93.98193,470.02664 194.44468,647.81719 340.39947,572.06436 432.77601,524.11382 519.94743,284.47162 401.77095,213.86632 333.53292,173.09442 221.74278,204.00825 165.0626,322.02631"
           style="fill:#ffffff;fill-opacity:1;fill-rule:evenodd;stroke:none;stroke-width:0.480176" />
        <path
           id="path63"
           d="m 370.67947,303.38582 c 13.90114,0 25.24771,-15.30808 25.24771,-34.08301 0,-18.77014 -11.34657,-34.07821 -25.24771,-34.07821 -13.90597,0 -25.24775,15.30807 -25.24775,34.07821 0,18.77493 11.34178,34.08301 25.24775,34.08301"
           style="fill:#252428;fill-opacity:1;fill-rule:evenodd;stroke:none;stroke-width:0.480176" />
        <path
           id="path64"
           d="m 440.10832,130.45465 c -103.50228,-37.871601 -209.53508,10.09814 -209.53508,10.09814 0,0 171.6683,-214.586545 209.53508,-10.09814"
           style="fill:#252428;fill-opacity:1;fill-rule:evenodd;stroke:none;stroke-width:0.480176" />
        <path
           id="path65"
           d="m 98.245906,481.10434 c 5.061064,55.02352 28.090384,92.57342 60.324684,123.85217 6.59285,6.39597 12.6863,9.9301 18.98622,16.52292 -25.26212,10.44868 -65.00641,-29.16597 -75.30143,-47.82087 -16.907067,-30.64495 -12.009256,-63.63315 -4.009474,-92.55422"
           style="fill:#252428;fill-opacity:1;fill-rule:evenodd;stroke:none;stroke-width:0.480176" />
        <path
           id="path66"
           d="M 495.81851,420.97168 C 492.91346,489.9684 423.8303,608.03446 357.96435,620.49507 406.09734,583.96795 471.30547,488.60951 495.81851,420.97168"
           style="fill:#252428;fill-opacity:1;fill-rule:evenodd;stroke:none;stroke-width:0.480176" />
        <path
           id="path67"
           d="M 429.2323,378.21188 C 333.12478,543.61384 170.18128,460.31262 155.55509,344.7339 104.28174,487.40905 201.8394,643.98055 340.39947,572.06436 402.1407,540.02213 461.55785,422.34018 458.89287,326.73685 c -8.95529,15.6874 -18.81336,32.80572 -29.66057,51.47503"
           style="fill:#babcba;fill-opacity:1;fill-rule:evenodd;stroke:none;stroke-width:0.480176" />
        <path
           id="path68"
           d="m 594.13969,278.13328 c 2.2136,-3.13075 4.51366,-6.2231 6.85694,-9.26263 20.58521,-26.60185 46.62043,-50.43305 75.96408,-67.01358 27.63903,-15.61537 59.40757,-25.28135 91.38739,-22.33305 40.13804,3.70217 71.79133,26.2177 95.02233,58.27434 39.33133,54.26966 31.84056,132.33213 12.24932,192.5944 -17.60331,54.12564 -57.01146,126.81971 -109.47566,154.05539 -41.54975,21.55995 -88.4007,27.82148 -131.24215,6.04542 -49.09814,-24.96444 -76.93402,-78.17771 -85.09226,-130.88681 -9.89646,-63.80119 7.09224,-129.02848 44.33001,-181.47348"
           style="fill:#252428;fill-opacity:1;fill-rule:evenodd;stroke:none;stroke-width:0.480176" />
        <path
           id="path69"
           d="m 605.5199,286.20988 c -108.47211,152.80209 -3.79822,367.8544 154.1898,285.85448 80.53057,-41.79947 160.27846,-232.38673 92.36696,-326.07898 -70.8982,-97.81696 -185.30052,-46.08264 -246.55676,40.2245"
           style="fill:#ffffff;fill-opacity:1;fill-rule:evenodd;stroke:none;stroke-width:0.480176" />
        <path
           id="path70"
           d="m 789.99452,303.38582 c 13.90593,0 25.24292,-15.30808 25.24292,-34.08301 0,-18.77014 -11.33699,-34.07821 -25.24292,-34.07821 -13.91076,0 -25.24775,15.30807 -25.24775,34.07821 0,18.77493 11.33699,34.08301 25.24775,34.08301"
           style="fill:#252428;fill-opacity:1;fill-rule:evenodd;stroke:none;stroke-width:0.480176" />
        <path
           id="path71"
           d="M 859.42337,130.45465 C 755.9211,92.583049 649.88831,140.55279 649.88831,140.55279 c 0,0 171.66346,-214.586545 209.53506,-10.09814"
           style="fill:#252428;fill-opacity:1;fill-rule:evenodd;stroke:none;stroke-width:0.480176" />
        <path
           id="path72"
           d="m 521.99299,482.58809 c 22.63077,67.83468 43.45129,94.34527 87.42593,124.86537 -54.71143,-0.45139 -102.19618,-71.45525 -87.42593,-124.86537"
           style="fill:#252428;fill-opacity:1;fill-rule:evenodd;stroke:none;stroke-width:0.480176" />
        <path
           id="path73"
           d="m 916.61252,413.58657 c 2.01675,71.98342 -35.63878,154.27623 -103.89601,178.86133 51.403,-44.5797 90.67192,-145.8011 103.89601,-178.86133"
           style="fill:#252428;fill-opacity:1;fill-rule:evenodd;stroke:none;stroke-width:0.480176" />
        <path
           id="path74"
           d="M 819.01643,465.32089 C 749.3859,500.84443 575.8065,442.00345 615.53639,272.99058 c -3.4813,4.29757 -6.81851,8.71043 -10.01649,13.2193 -108.47211,152.80209 -3.7886,367.8544 154.19941,285.85448 39.10568,-20.30189 78.02883,-75.69999 99.94416,-138.05104 -13.4738,13.42094 -27.21649,24.45063 -40.64704,31.30757"
           style="fill:#babcba;fill-opacity:1;fill-rule:evenodd;stroke:none;stroke-width:0.480176" />
        <path
           id="path75"
           d="m 441.75053,136.63454 c 15.13042,-10.33341 -1.47893,-105.014836 -5.17152,-110.916194 -3.68776,-5.91101 -14.02117,64.223738 -14.02117,64.223738 0,0 18.45323,16.426866 19.19269,46.692456"
           style="fill:#252428;fill-opacity:1;fill-rule:evenodd;stroke:none;stroke-width:0.480176" />
        <path
           id="path76"
           d="m 644.15016,147.69783 c -9.65157,-15.57695 43.88824,-95.411271 49.65517,-99.315115 5.76695,-3.903844 -13.19528,64.401425 -13.19528,64.401425 0,0 -23.51908,7.53878 -36.45989,34.91369"
           style="fill:#252428;fill-opacity:1;fill-rule:evenodd;stroke:none;stroke-width:0.480176" />
      </g>
      <path
         id="path77"
         d="m 1137.9213,-197.73235 v 0 c -0.6563,0.33866 -0.9975,1.03866 -0.8595,1.76266 0.138,0.724 0.7109,1.25067 1.4453,1.32534 3.6787,0.37866 7.3516,0.584 11.0495,0.672 3.1537,0.076 6.3125,0.0707 9.4661,0.14133 3.6486,0.0773 7.249,0.27867 10.8672,0.76267 1.1251,0.148 2.2423,0.32266 3.3542,0.52133 0.2724,0.0747 0.5521,0.12933 0.8438,0.16667 0.069,0.0107 0.137,0.0173 0.2047,0.028 2.9099,0.55733 5.7864,1.268 8.6404,2.09866 10.28,2.99334 19.8,6.79467 28.5227,12.03467 0.2786,0.192 0.556,0.388 0.8333,0.58533 0.372,0.26534 0.76,0.48267 1.1613,0.64667 5.94,3.776 11.4974,8.26267 16.6587,13.66667 0.7773,0.81733 1.564,1.64 2.312,2.484 0.216,0.24533 0.4227,0.50533 0.6413,0.74533 0.244,0.27067 0.54,0.51467 0.8147,0.75467 0.8173,0.716 1.636,1.432 2.4493,2.15333 0.5347,0.47467 1.2787,0.54933 1.9,0.19867 0.6227,-0.35467 0.9347,-1.03467 0.8,-1.73467 -1.4386,-7.53467 -5.704,-14.32267 -11.1933,-20.18 0.6853,-0.268 1.3627,-0.55733 2.0347,-0.86933 14.7306,-6.86 23.728,-23.14934 27.1386,-38.43067 3.4347,-15.392 2.176,-34.20266 -8.4706,-46.67066 -2.3307,-2.72934 -5.0507,-5.064 -8.116,-6.92934 -5.3547,-3.26 -11.412,-5.41866 -17.54,-6.67066 -14.7147,-3.012 -29.4387,2.08 -41.052,11.14 -2.3659,1.84666 -4.6055,3.85866 -6.6955,6.01066 -8.8803,9.132 -15.1355,21.27333 -16.5991,33.988 -0.9634,8.39867 0.6615,16.25733 4.4704,23.19733 -9.025,0.54 -17.7177,2.59467 -25.0797,6.39867 0,0.003 0,0.003 0,0.003 z m 256.7077,-0.003 c -7.3627,-3.804 -16.056,-5.85867 -25.0813,-6.39867 3.808,-6.94 5.4333,-14.79866 4.4706,-23.19733 -1.4626,-12.71467 -7.72,-24.856 -16.5986,-33.988 -10.2774,-10.57333 -23.696,-16.90266 -38.368,-18.25733 -0.2334,-0.0213 -0.464,-0.028 -0.6974,-0.0213 -2.8893,0.0867 -5.8533,0.548 -8.6826,1.128 -6.1267,1.252 -12.184,3.41066 -17.54,6.67066 -3.064,1.86534 -5.7854,4.2 -8.1147,6.92934 -10.6467,12.468 -11.9053,31.27866 -8.4707,46.67066 3.4094,15.28133 12.408,31.57067 27.1387,38.43067 0.6693,0.312 1.3493,0.604 2.0347,0.86933 -5.4894,5.85733 -9.756,12.64533 -11.1947,20.18 -0.1347,0.7 0.18,1.38 0.8,1.73467 0.6227,0.35066 1.3653,0.276 1.9013,-0.19867 0.8134,-0.72133 1.6294,-1.43733 2.4494,-2.15333 0.2746,-0.24 0.568,-0.484 0.8146,-0.75467 0.2187,-0.24 0.4227,-0.5 0.64,-0.74533 0.7494,-0.844 1.5347,-1.66667 2.3147,-2.484 5.1587,-5.404 10.716,-9.89067 16.6573,-13.66667 0.4027,-0.16667 0.788,-0.38133 1.1614,-0.64667 0.276,-0.19733 0.5533,-0.39333 0.832,-0.58533 8.7226,-5.24 18.2426,-9.04133 28.524,-12.03467 2.8533,-0.83066 5.7306,-1.544 8.64,-2.09866 0.068,-0.0107 0.1373,-0.0173 0.204,-0.028 0.2906,-0.0373 0.5706,-0.092 0.8426,-0.16667 1.112,-0.19867 2.2307,-0.37333 3.3547,-0.52133 3.62,-0.484 7.2187,-0.68534 10.8667,-0.76267 3.1573,-0.0707 6.3133,-0.0653 9.4693,-0.14133 3.6947,-0.088 7.3693,-0.29334 11.0493,-0.672 0.732,-0.0747 1.3054,-0.60134 1.4427,-1.32534 0.1387,-0.724 -0.2027,-1.424 -0.8587,-1.76266 v 0 z m -181.364,-105.704 c 0.9867,-0.30666 2.04,-0.51466 2.984,-0.67866 2.9093,-0.5 5.9507,-0.71734 8.8973,-0.86 6.2747,-0.308 12.528,-1.75067 18.332,-4.15467 1.7707,-0.73467 3.5214,-1.56267 5.196,-2.49733 0.608,-0.33867 1.2494,-0.70534 1.8254,-1.09867 0.7253,-0.49333 1.708,-0.33067 2.2346,0.36933 1.1574,1.532 0.672,6.108 0.4667,7.804 -0.3493,2.9 -1.4507,5.808 -3.132,8.19867 -1.0347,1.47067 -2.412,2.90133 -4.032,3.808 -1.3253,1.30933 -4.052,1.40133 -5.652,1.40133 -12.2573,0 -24.2453,0.48667 -36.236,3.29867 -14.3027,3.352 -26.8944,9.616 -38.4829,18.628 -0.6224,0.48533 -1.4819,0.464 -2.0792,-0.0533 -0.599,-0.516 -0.7464,-1.36134 -0.3558,-2.05067 5.8922,-10.41733 13.9687,-19.05467 24.5286,-24.80667 7.88,-4.29066 16.592,-6.664 25.5053,-7.308 z m 72.7067,10.108 c -1.1134,-0.85066 -2.076,-1.928 -2.848,-3.02533 -1.6814,-2.39067 -2.784,-5.29867 -3.1334,-8.19867 -0.2026,-1.696 -0.6893,-6.272 0.468,-7.804 0.5254,-0.7 1.5094,-0.86266 2.2334,-0.36933 0.576,0.39333 1.2173,0.76 1.8266,1.09867 1.6747,0.93466 3.424,1.76266 5.1947,2.49733 5.8053,2.404 12.0573,3.84667 18.3333,4.15467 2.9454,0.14266 5.9867,0.36 8.8987,0.86 1.008,0.17333 2.144,0.40133 3.1893,0.74533 8.6187,0.73067 17.0294,3.08667 24.6574,7.24133 10.56,5.752 18.6373,14.38934 24.528,24.80667 0.3906,0.68933 0.244,1.53467 -0.3547,2.05067 -0.5987,0.51733 -1.456,0.53866 -2.08,0.0533 -11.588,-9.012 -24.18,-15.276 -38.4827,-18.628 -11.992,-2.812 -23.9773,-3.29867 -36.236,-3.29867 -1.8733,0 -5.2906,-0.12666 -6.1946,-2.184 v 0"
         style="fill:#252428;fill-opacity:1;fill-rule:evenodd;stroke:none;stroke-width:0.133333" />
      <path
         id="path78"
         d="m 1171.9421,-195.14169 c -8.7943,-8.60133 -13.2006,-19.61466 -11.7771,-32 1.4203,-12.35333 7.5192,-24.16133 16.1432,-33.03199 11.9328,-12.27867 29.1128,-20.192 46.2435,-16.68667 5.9346,1.21467 11.828,3.30667 17.0146,6.464 33.04,20.11733 16.0974,91.93466 -23.92,92.19066 -0.9,0.004 -1.6746,-0.24 -2.4053,-0.764 -11.5413,-8.216 -24.9067,-13.25466 -38.9473,-15.036 -0.9246,-0.11733 -1.685,-0.484 -2.3516,-1.136"
         style="fill:#252428;fill-opacity:1;fill-rule:evenodd;stroke:none;stroke-width:0.133333" />
      <path
         id="path79"
         d="m 1202.7903,-271.67235 c -22.3493,6.76 -36.4212,26.47466 -38.5498,44.99733 -1.3506,11.75067 3.1677,21.36133 10.5702,28.59867 16.741,2.12533 30.4076,8.36 40.809,15.76533 36.2893,-0.228 54.0453,-69.66133 16.7106,-87.456 -9.7973,-4.668 -19.32,-4.99733 -29.54,-1.90533"
         style="fill:#ffffff;fill-opacity:1;fill-rule:evenodd;stroke:none;stroke-width:0.133333" />
      <path
         id="path80"
         d="m 1167.429,-239.13902 c -1.6339,4.10933 -2.7109,8.31867 -3.1885,12.464 -1.3506,11.75067 3.1677,21.36133 10.5702,28.59867 16.741,2.12533 30.4076,8.36 40.809,15.76533 26.8613,-0.16933 43.5613,-38.252 35.2866,-65.24667 -2.56,17.42134 -13.644,33.92667 -36.6226,34.74667 -23.868,0.85467 -42.525,-10.19467 -46.8547,-26.328"
         style="fill:#babcba;fill-opacity:1;fill-rule:evenodd;stroke:none;stroke-width:0.133333" />
      <path
         id="path81"
         d="m 1211.057,-246.01369 c 4.0893,0 7.424,-4.50266 7.424,-10.02266 0,-5.52 -3.3347,-10.02267 -7.424,-10.02267 -4.0893,0 -7.424,4.50267 -7.424,10.02267 0,5.52 3.3347,10.02266 7.424,10.02266"
         style="fill:#252428;fill-opacity:1;fill-rule:evenodd;stroke:none;stroke-width:0.133333" />
      <path
         id="path82"
         d="m 1164.6582,-270.51235 c 26.7268,-20.788 52.3401,-22.27333 75.7268,-22.27333 23.3853,0 -45.288,-31.55334 -75.7268,22.27333"
         style="fill:#252428;fill-opacity:1;fill-rule:evenodd;stroke:none;stroke-width:0.133333" />
      <path
         id="path83"
         d="m 1138.6738,-196.27102 c 20.038,-10.35733 50.1405,-7.34133 69.0259,3.76267 12.396,7.28933 26.8813,19.252 29.7146,34.09866 -5.2773,-4.67733 -1.076,-0.76 -6.1186,-6.04133 -13.4054,-14.04133 -29.3987,-21.98667 -47.9027,-27.37467 -18.8208,-5.48266 -27.2635,-2.656 -44.7192,-4.44533"
         style="fill:#252428;fill-opacity:1;fill-rule:evenodd;stroke:none;stroke-width:0.133333" />
      <path
         id="path84"
         d="m 1358.257,-194.00569 c -14.0387,1.78134 -27.4053,6.82 -38.9453,15.036 -0.732,0.524 -1.5067,0.768 -2.4054,0.764 -40.0173,-0.256 -56.9613,-72.07333 -23.92,-92.19066 5.1867,-3.15733 11.08,-5.24933 17.0147,-6.464 2.6547,-0.544 5.6773,-1.01333 8.4027,-1.09467 0.1733,-0.004 0.3226,0 0.4973,0.016 14.2853,1.31867 27.34,7.47467 37.3427,17.76534 8.6226,8.87066 14.7226,20.67866 16.1426,33.03199 1.4227,12.38534 -2.9813,23.39867 -11.7773,32 -0.6667,0.652 -1.4253,1.01867 -2.352,1.136"
         style="fill:#252428;fill-opacity:1;fill-rule:evenodd;stroke:none;stroke-width:0.133333" />
      <path
         id="path85"
         d="m 1318.525,-273.85368 c 28.8253,2.66 47.3187,25.71999 49.7853,47.17866 1.3507,11.75067 -3.168,21.36133 -10.5693,28.59867 -16.74,2.12533 -30.408,8.36 -40.8093,15.76533 -41.2067,-0.26 -58.516,-89.74933 1.5933,-91.54266"
         style="fill:#ffffff;fill-opacity:1;fill-rule:evenodd;stroke:none;stroke-width:0.133333" />
      <path
         id="path86"
         d="m 1364.5157,-240.60835 c 1.976,4.572 3.2613,9.29066 3.7946,13.93333 1.3507,11.75067 -3.168,21.36133 -10.5693,28.59867 -16.74,2.12533 -30.408,8.36 -40.8093,15.76533 -23.72,-0.148 -39.516,-29.86133 -37.1907,-55.39733 9.9307,20.79866 31.0653,32.44 61.328,20.12133 14.3067,-5.82267 20.8333,-14.512 23.4467,-23.02133"
         style="fill:#babcba;fill-opacity:1;fill-rule:evenodd;stroke:none;stroke-width:0.133333" />
      <path
         id="path87"
         d="m 1321.4943,-246.01369 c 4.088,0 7.424,-4.50266 7.424,-10.02266 0,-5.52 -3.336,-10.02267 -7.424,-10.02267 -4.088,0 -7.424,4.50267 -7.424,10.02267 0,5.52 3.336,10.02266 7.424,10.02266"
         style="fill:#252428;fill-opacity:1;fill-rule:evenodd;stroke:none;stroke-width:0.133333" />
      <path
         id="path88"
         d="m 1367.893,-270.51235 c -26.7267,-20.788 -52.3387,-22.27333 -75.7267,-22.27333 -23.3853,0 45.288,-31.55334 75.7267,22.27333"
         style="fill:#252428;fill-opacity:1;fill-rule:evenodd;stroke:none;stroke-width:0.133333" />
      <path
         id="path89"
         d="m 1393.877,-196.27102 c -17.4547,1.78933 -25.8973,-1.03733 -44.716,4.44533 -18.5053,5.388 -34.5,13.33334 -47.904,27.37467 -5.0427,5.28133 -0.8427,1.36667 -6.12,6.04133 2.8333,-14.84666 17.32,-26.80933 29.7147,-34.09866 18.8853,-11.104 48.988,-14.12 69.0253,-3.76267"
         style="fill:#252428;fill-opacity:1;fill-rule:evenodd;stroke:none;stroke-width:0.133333" />
      <path
         id="path90"
         d="m 1243.665,-293.34968 c 3.6213,-0.86934 7.2413,-5.86267 7.908,-11.39867 0.664,-5.536 -0.1493,-6.62133 -0.1493,-6.62133 0,0 -10.6867,7.27333 -26.1974,8.032 -15.5106,0.76133 -13.772,3.36666 -13.772,3.36666 0,0 19.8694,7.164 32.2107,6.62134"
         style="fill:#252428;fill-opacity:1;fill-rule:evenodd;stroke:none;stroke-width:0.133333" />
      <path
         id="path91"
         d="m 1289.5263,-293.34968 c -3.62,-0.86934 -7.24,-5.86267 -7.9053,-11.39867 -0.6653,-5.536 0.1467,-6.62133 0.1467,-6.62133 0,0 10.6906,7.27333 26.1973,8.032 15.5107,0.76133 13.7747,3.36666 13.7747,3.36666 0,0 -19.872,7.164 -32.2134,6.62134"
         style="fill:#252428;fill-opacity:1;fill-rule:evenodd;stroke:none;stroke-width:0.133333" />
      <path
         id="path92"
         d="m 1392.445,-60.912356 c 0.5747,0.04933 1.0907,-0.164 1.4613,-0.606667 0.3694,-0.442667 0.4894,-0.986667 0.336,-1.544 -0.344,-1.262667 -0.808,-2.56 -1.2746,-3.781333 -1.0947,-2.866667 -2.4214,-5.677333 -3.9774,-8.32 -4.0666,-6.909333 -10.012,-13.117333 -18.196,-14.672 -4.464,-0.846666 -8.9586,-1.565333 -13.4453,-2.281333 -4.972,-0.792 -9.9427,-1.573333 -14.9013,-2.432 -4.8547,-0.841333 -9.704,-1.753333 -14.508,-2.844 -4.3027,-0.978666 -8.632,-2.106666 -12.7947,-3.576001 -7.284,-2.56533 -14.668,-4.896 -22.0707,-7.08533 -3.4386,-1.01867 -6.892,-2.016 -10.3533,-2.95067 -0.592,-0.15867 -1.18,-0.0107 -1.624,0.41467 -0.4453,0.424 -0.6227,1.00133 -0.4893,1.60133 1.836,8.38 5.0693,16.120001 11.1373,22.328001 8.9733,9.18 22.692,13.213333 34.8333,16.101333 7.0454,1.674666 14.2187,2.978666 21.364,4.130666 10.1,1.626667 20.268,2.948 30.4334,4.082667 4.68,0.524 9.3786,1.026667 14.0693,1.434667 z m -136.86,-48.077334 c 0.132,-0.6 -0.045,-1.17733 -0.4893,-1.60133 -0.4454,-0.42534 -1.032,-0.57334 -1.6254,-0.41467 -3.46,0.93467 -6.9133,1.932 -10.3493,2.95067 -7.4067,2.18933 -14.7907,4.52 -22.0733,7.08533 -4.164,1.469335 -8.4934,2.597335 -12.796,3.576001 -4.8027,1.090667 -9.6534,2.002667 -14.5067,2.844 -4.9573,0.858667 -9.9307,1.64 -14.9004,2.432 -4.4869,0.716 -8.9817,1.434667 -13.4468,2.281333 -8.1849,1.552 -14.1287,7.762667 -18.1953,14.672 -1.5558,2.642667 -2.8828,5.453333 -3.9776,8.32 -0.4651,1.221333 -0.9312,2.518666 -1.2751,3.781333 -0.1509,0.557333 -0.031,1.101333 0.3376,1.544 0.3681,0.442667 0.8864,0.656 1.4593,0.606667 4.6916,-0.408 9.3907,-0.910667 14.0703,-1.434667 10.1641,-1.134667 20.3333,-2.456 30.432,-4.082667 7.1467,-1.152 14.3213,-2.456 21.3653,-4.130666 12.1427,-2.888 25.8587,-6.921333 34.8334,-16.101333 6.0693,-6.208 9.3013,-13.948001 11.1373,-22.328001 z m -3.664,82.265066 c 0.8067,-2.825067 1.3853,-5.682266 1.6853,-8.4636 0.176,-1.632266 1.6534,-2.828133 3.2867,-2.6536 1.6333,0.171867 2.8293,1.6536 2.6547,3.2896 -0.92,8.5516 -4.176,17.674533 -8.668,25.024933 -3.808,6.2349332 -9.3187,12.488133 -16.2814,15.1933329 -0.2066,0.080133 -0.416,0.1348 -0.6266,0.1666667 -11.9454,5.3363994 -28.6134,6.3587994 -39.2227,6.3587994 -0.1067,0 -0.2147,-0.0025 -0.3227,-0.0093 -10.0026,-0.01613 -20.1702,-0.857333 -29.9817,-2.8265331 -6.9192,-1.3854667 -16.0703,-3.7881333 -21.6509,-8.2135998 -2.6798,-2.12239998 -4.7475,-4.9677332 -4.7475,-8.5145332 v -0.091733 c -0.01,-0.1068 -0.01,-0.2109333 -0.01,-0.3177333 0,-10.4530666 0.5199,-19.9145336 6.5278,-28.8957326 6.3394,-9.478667 16.8577,-14.885333 27.8593,-18.093333 7.4724,-2.822667 15.4676,-4.562667 23.0516,-5.930667 5.5573,-1 11.1413,-1.833333 16.712,-2.744 5.1573,-0.846666 10.3427,-1.753333 15.4107,-3.026666 1.5986,-0.4 3.1,-0.784 4.5226,-1.166667 0.628,-0.241333 1.252,-0.492 1.872,-0.752 0.7547,-0.32 1.5454,-0.472 2.3227,-0.469333 7.9973,-2.562667 13.2227,-5.978667 18.8067,-15.312 0.4306,-0.721333 1.3,-1.018666 2.0826,-0.716 0.784,0.304 1.2254,1.112 1.0574,1.934667 -2.1094,10.357333 -5.7454,13.642666 -14.772,18.647999 -0.3227,0.18 -0.648,0.357334 -0.976,0.529334 4.5946,9.882666 8.208,21.947999 9.1613,32.617332 0.1293,1.4708 0.216,2.9532 0.244,4.4344 z m 35.4067,24.0734662 c -2.3,-2.1198667 -4.3467,-4.5318666 -6.1,-7.1693332 -5.3454,-8.040133 -7.6774,-17.604133 -8.192,-27.154666 -0.088,-1.642667 1.188,-3.0572 2.8293,-3.139867 1.6427,-0.084 3.048,1.187734 3.136,2.825334 0.2013,3.745333 0.7093,7.513466 1.6213,11.169199 0.015,-1.688 0.104,-3.3692 0.252,-5.038533 0.9707,-10.836 4.6827,-23.114666 9.38,-33.081332 -6.5546,-3.629334 -10.6346,-8.462667 -12.26,-17.932 -0.1413,-0.825333 0.3214,-1.617333 1.112,-1.898666 0.7894,-0.281334 1.648,0.03867 2.06,0.768 4.9934,8.846666 8.844,12.086666 15.6294,14.469332 0.5946,0.05467 1.188,0.2 1.764,0.442667 0.4266,0.18 0.8546,0.354667 1.2893,0.525333 1.7987,0.524 3.7893,1.034667 6.0267,1.6 4.9026,1.233334 9.912,2.112 14.904,2.910667 5.3106,0.852 10.636,1.609333 15.9413,2.510667 9.1773,1.562666 18.292,3.557333 26.516,7.046666 9.8453,3.297333 19.0093,8.54 24.7493,17.12 6.0067,8.981199 6.5307,18.442666 6.528,28.8957323 0,0.1068 0,0.2109333 -0.01,0.3177333 v 0.091733 c 0,3.5468 -2.068,6.39213322 -4.748,8.5145332 -5.5787,4.4254665 -14.732,6.8281331 -21.648,8.2135998 -9.812,1.9692004 -19.9813,2.8104004 -29.984,2.8265334 -0.1067,0.0068 -0.2147,0.0093 -0.3227,0.0093 -14.48,0 -40.244,-1.905199 -49.888,-14.0745328 -0.2,-0.2536 -0.3946,-0.5082667 -0.5866,-0.7681333 v 0"
         style="fill:#252428;fill-opacity:1;fill-rule:evenodd;stroke:none;stroke-width:0.133333" />
      <path
         id="path93"
         d="m 1253.9157,-109.35502 c -5.0774,23.163998 -18.9494,31.010664 -44.6974,37.130664 -25.7493,6.122666 -65.62,9.609333 -65.62,9.609333 0,0 6.1276,-22.507999 22.1187,-25.541333 15.9893,-3.037333 40.1987,-5.669333 55.8987,-11.201333 15.6986,-5.528001 32.3,-9.997331 32.3,-9.997331"
         style="fill:#252428;fill-opacity:1;fill-rule:evenodd;stroke:none;stroke-width:0.133333" />
      <path
         id="path94"
         d="m 1194.4783,10.472708 c -9.8493,-0.01453 -20.0425,-0.8557328 -29.6988,-2.7905328 -6.5458,-1.3130666 -15.6145,-3.6693332 -20.9234,-7.87866644 -2.25,-1.78386666 -4.1,-4.17346656 -4.1,-7.17599986 v -0.1412 c -0.01,-0.088 -0.01,-0.1776 -0.01,-0.2682666 0,-10.0437333 0.435,-19.2677333 6.2396,-27.9453323 8.9052,-13.317067 26.6302,-18.289067 41.5787,-20.5304 9.5227,-1.428 19.1293,-2.961333 28.5347,-5.042666 6.2173,-1.374667 12.6786,-3.038667 18.556,-5.517334 2.0906,-0.881333 4.4986,0.02 5.4973,2.06 4.8667,9.94 8.8427,22.804 9.8213,33.751866 0.8774,9.802533 -0.3893,20.125466 -6.6773,28.0598662 -9.2333,11.6510663 -34.864,13.4295998 -48.548,13.4295998 -0.091,0 -0.18,-0.0052 -0.2707,-0.01093"
         style="fill:#252428;fill-opacity:1;fill-rule:evenodd;stroke:none;stroke-width:0.133333" />
      <path
         id="path95"
         d="m 1239.9503,-5.5991578 c 14.8067,-18.6853332 -2.276,-54.5105322 -3.6346,-57.2811982 -10.248,4.32 -25.1627,7.402666 -48.1174,10.845333 -44.186,6.630666 -44.1833,28.435866 -44.1781,44.2530653 h 0.01 v 0.4094666 c 0,1.2785333 0.8907,2.5666666 2.4808,3.8281333 3.6807,2.91866657 10.5948,5.3306665 19.112,7.0358665 8.6848,1.7426666 18.947,2.7109332 29.1283,2.7109332 v 0.00787 c 19.5173,0 38.6027,-3.4813332 45.2013,-11.8094664"
         style="fill:#babcba;fill-opacity:1;fill-rule:evenodd;stroke:none;stroke-width:0.133333" />
      <path
         id="path96"
         d="m 1239.9503,-5.5991578 c 9.3187,-11.7587992 6.0067,-30.3051992 1.932,-43.1305322 -3.3546,0.538667 -7.0333,1.052 -11.0693,1.536 -56.7965,6.8 -74.3136,19.617466 -79.1652,46.58679877 3.7135,1.62239993 8.5129,3.00519993 13.9729,4.09839993 8.6848,1.7426666 18.947,2.7109332 29.1283,2.7109332 v 0.00787 c 19.5173,0 38.6027,-3.4813332 45.2013,-11.8094664"
         style="fill:#ffffff;fill-opacity:1;fill-rule:evenodd;stroke:none;stroke-width:0.133333" />
      <path
         id="path97"
         d="m 1199.9543,-23.221557 c 5.8974,0 10.7094,-4.992134 10.7094,-11.111867 0,-6.120266 -4.812,-11.112266 -10.7094,-11.112266 -5.9,0 -10.7133,4.992 -10.7133,11.112266 0,6.119733 4.8133,11.111867 10.7133,11.111867"
         style="fill:#252428;fill-opacity:1;fill-rule:evenodd;stroke:none;stroke-width:0.133333" />
      <path
         id="path98"
         d="m 1256.589,-83.295022 c -1.956,9.601333 -5.0547,12.573333 -13.9253,17.494666 -17.0854,9.474666 -40.0414,11.023999 -58.912,15.171999 -18.7404,4.12 -33.7914,13.586533 -39.2534,32.8464 -3.0276,10.6693326 0.2927,0.263066 -1.3922,5.470933 -1.0963,-3.8256 -0.2604,-8.290667 0.875,-12 10.961,-35.757332 54.8826,-33.181332 84.0372,-40.503999 14.0414,-3.526667 20.9827,-5.794666 28.5707,-18.479999"
         style="fill:#252428;fill-opacity:1;fill-rule:evenodd;stroke:none;stroke-width:0.133333" />
      <path
         id="path99"
         d="m 1282.277,-109.35502 c 5.076,23.163998 18.9493,31.010664 44.696,37.130664 25.7493,6.122666 65.62,9.609333 65.62,9.609333 0,0 -6.128,-22.507999 -22.1173,-25.541333 -15.9894,-3.037333 -40.2,-5.669333 -55.9,-11.201333 -15.6987,-5.528001 -32.2987,-9.997331 -32.2987,-9.997331"
         style="fill:#252428;fill-opacity:1;fill-rule:evenodd;stroke:none;stroke-width:0.133333" />
      <path
         id="path100"
         d="m 1392.797,-7.5136911 v 0.1412 c 0,3.0025333 -1.8493,5.3921332 -4.1013,7.17599986 -5.308,4.20933324 -14.3774,6.56559984 -20.9227,7.87866644 -9.656,1.9348 -19.8507,2.7759998 -29.6987,2.7905328 -0.089,0.0057 -0.1813,0.01093 -0.272,0.01093 -13.684,0 -39.3146,-1.7785335 -48.5493,-13.4295998 -1.424,-1.8 -2.6187,-3.7598666 -3.5827,-5.8385332 -3.2,-6.888 -3.7613,-14.748 -3.0933,-22.221333 0.98,-10.947866 4.9547,-23.811866 9.8227,-33.751866 0.9986,-2.04 3.404,-2.941333 5.496,-2.06 5.8773,2.478667 12.3413,4.142667 18.5573,5.517334 9.4027,2.081333 19.0107,3.614666 28.5333,5.042666 14.9494,2.241333 32.6734,7.213333 41.58,20.5304 5.8027,8.677599 6.24,17.901599 6.2387,27.9453323 0,0.090667 0,0.1802666 -0.01,0.2682666"
         style="fill:#252428;fill-opacity:1;fill-rule:evenodd;stroke:none;stroke-width:0.133333" />
      <path
         id="path101"
         d="m 1296.2357,-62.880356 c -1.356,2.770666 -18.4414,38.595865 -3.6334,57.2811982 6.5987,8.3281332 25.684,11.8094664 45.2,11.8094664 v -0.00787 c 10.1827,0 20.444,-0.9682666 29.1307,-2.7109332 8.5147,-1.7052 15.428,-4.11719993 19.1107,-7.0358665 1.588,-1.2614667 2.4813,-2.5496 2.4813,-3.8281333 V -7.781961 h 0.01 c 0,-15.817199 0.01,-37.622399 -44.18,-44.253065 -22.9547,-3.442667 -37.8693,-6.525333 -48.1173,-10.845333"
         style="fill:#ffffff;fill-opacity:1;fill-rule:evenodd;stroke:none;stroke-width:0.133333" />
      <path
         id="path102"
         d="m 1296.2357,-62.880356 c -0.4374,0.893333 -2.508,5.224 -4.6174,11.301333 22.444,0.466666 63.5587,5.549333 76.64,26.989332 5.6574,9.271867 7.9267,18.0478666 8.4814,25.55719973 3.9706,-1.3093333 7.176,-2.82546663 9.304,-4.51186653 1.588,-1.2614667 2.4813,-2.5496 2.4813,-3.8281333 v -0.4094666 h 0.01 c 0,-15.8171993 0.01,-37.6223993 -44.18,-44.2530653 -22.9547,-3.442667 -37.8693,-6.525333 -48.1173,-10.845333"
         style="fill:#babcba;fill-opacity:1;fill-rule:evenodd;stroke:none;stroke-width:0.133333" />
      <path
         id="path103"
         d="m 1332.5997,-23.221557 c 5.9,0 10.712,-4.992134 10.712,-11.111867 0,-6.120266 -4.812,-11.112266 -10.712,-11.112266 -5.9,0 -10.712,4.992 -10.712,11.112266 0,6.119733 4.812,11.111867 10.712,11.111867"
         style="fill:#252428;fill-opacity:1;fill-rule:evenodd;stroke:none;stroke-width:0.133333" />
      <path
         id="path104"
         d="m 1279.6797,-82.461689 c 7.04,12.472 11.9453,14.367999 25.7786,17.851999 27.3414,6.885334 65.124,4.210667 81.0107,33.172 3.0013,5.470933 6.3813,13.514666 4.884,19.959999 -1.7987,-4.785467 1.468,4.0399999 -1.684,-5.569333 -6.3693,-19.4068 -21.4587,-29.318666 -40.7653,-33.586666 -17.0254,-3.765333 -32.44,-4.924 -49.4574,-11.388 -11.32,-4.298666 -17.6613,-8.163999 -19.7666,-20.439999"
         style="fill:#252428;fill-opacity:1;fill-rule:evenodd;stroke:none;stroke-width:0.133333" />
      <path
         id="path105"
         d="m 1233.9783,4.0727087 c -0.6586,0.2547999 -1.3986,-0.073333 -1.6506,-0.7317334 -0.2547,-0.6562666 0.072,-1.3958666 0.7306,-1.6519999 5.472,-2.12666663 10.364,-7.1895998 14.1814,-13.4375994 4.332,-7.0932 7.248,-15.671867 8.0653,-23.2572 0.075,-0.702666 0.7053,-1.210533 1.4067,-1.138533 0.7013,0.076 1.2106,0.706667 1.1373,1.409333 -0.8547,7.940133 -3.9027,16.912 -8.428,24.3172 -4.0853,6.6905329 -9.4013,12.1415994 -15.4427,14.4905327"
         style="fill:#252428;fill-opacity:1;fill-rule:evenodd;stroke:none;stroke-width:0.133333" />
      <path
         id="path106"
         d="m 1274.741,-37.065824 c -0.036,-0.7052 0.5067,-1.306666 1.212,-1.343733 0.7053,-0.03333 1.3053,0.507867 1.344,1.213067 0.5827,10.813466 3.4747,18.985466 7.4853,25.018799 5.0374,7.5785332 11.848,11.7837331 18.0454,13.6066664 0.6786,0.1985333 1.0653,0.9094666 0.8653,1.5865333 -0.1987,0.676 -0.908,1.064 -1.5853,0.8666666 -6.692,-1.9693333 -14.0387,-6.4974665 -19.4587,-14.6479993 -4.2413,-6.378533 -7.296,-14.977067 -7.908,-26.3"
         style="fill:#252428;fill-opacity:1;fill-rule:evenodd;stroke:none;stroke-width:0.133333" />
      <path
         id="path107"
         d="m 1535.4863,3.7665753 c -0.232,0.4197334 -0.5253,0.7744 -0.9293,1.0514667 -1.8267,1.3322666 -4.8293,0.388 -6.732,-0.3077334 -3.0027,-1.0999999 -5.976,-2.6469332 -8.8547,-4.04013319 -2.368,-1.1625333 -4.844,-2.33853331 -7.336,-3.20359991 -0.836,-0.2469333 -1.672,-0.4964 -2.524,-0.7125333 -15.5706,-4.0089333 -31.22,-4.4573332 -46.8693,-0.6037333 -5.8347,1.4401333 -11.484,3.43706654 -16.9787,5.8666665 -4.3653,1.9198666 -8.56,4.1010665 -12.7546,6.3625332 -0.356,0.1838666 -0.7907,0.1078666 -1.0534,-0.2172 -0.2466,-0.3109334 -0.2466,-0.7598667 0.016,-1.0681333 8.0947,-9.4275998 18.744,-15.4479997 30.6174,-18.7609333 11.1893,-3.1256 23.2173,-3.8068 34.764,-2.785466 5.232,0.479733 10.4786,1.3 15.6013,2.5052 4.2893,1.007866 8.592,2.292133 12.6613,3.979733 2.88,1.1921333 6.0694,2.7415999 8.484,4.7213332 1.4854,1.2082666 3.2654,3.08013323 2.972,5.1697332 -0.124,0.7890666 -0.5266,1.4693333 -1.084,2.0427999 z m 8.5907,-80.0242643 c 3.2347,-4.286667 5.356,-9.178667 6.7627,-14.333333 0.108,-0.386667 0.4826,-0.634667 0.8826,-0.604 0.4027,0.032 0.7134,0.341333 0.7587,0.744 0.9587,9.209333 -0.077,20.137333 -7.988,26.235999 -2.072,1.594667 -4.5187,2.754667 -7.0707,3.329333 -0.312,0.06133 -0.62,0.122667 -0.9293,0.169334 -0.5267,0.154666 -1.0547,0.2 -1.5947,0.169333 -0.064,0 -0.14,-0.01467 -0.2026,-0.01467 -0.3854,0 -0.8347,-0.04667 -1.1294,-0.262666 -0.6493,-0.248 -1.2066,-0.665334 -1.6253,-1.301334 -0.4493,-0.664 -0.6347,-1.346666 -0.82,-2.104 -0.3107,-1.254666 -0.48,-2.538666 -0.6187,-3.824 -1.9813,1.78 -4.1493,3.312 -6.4546,4.581334 1.1453,0.682666 2.244,1.424 3.296,2.26 1.44,1.145333 2.772,2.429333 3.948,3.838666 0.1533,0.185334 0.216,0.402667 0.1853,0.634667 -0.7587,6.609333 -3.5133,12.536 -8.1253,17.366533 -6.472,6.796266 -15.68,10.494799 -24.6894,12.522799 -5.9586,1.331867 -12.0106,2.4772 -18.0786,3.204267 -4.9374,0.6052 -10.0147,0.942133 -14.9987,0.6968 -7.104,-0.3572 -15.0453,-1.997333 -20.076,-7.445333 -0.1707,-0.1864 -0.2467,-0.419733 -0.216,-0.665067 0.077,-0.604133 0.1547,-1.207733 0.2627,-1.795866 1.284,-7.7388 6.532,-14.317467 12.368,-19.2548 4.0693,-3.437333 8.744,-6.362666 13.652,-8.730666 -3.204,-0.774667 -6.3774,-1.64 -9.5054,-2.6 -2.8626,-0.881334 -5.6946,-1.842667 -8.496,-2.894667 -1.116,-0.418667 -2.2146,-0.836 -3.312,-1.301333 -0.9293,-0.401334 -1.6106,-1.330667 -1.008,-2.32 0.48,-0.790667 1.548,-1.084 2.4307,-1.1 2.9413,-0.07733 5.8827,-0.278667 8.8067,-0.510667 7.2906,-0.557333 14.5506,-1.424 21.764,-2.570666 10.1226,-1.594667 20.2306,-3.790667 30.044,-6.809334 8.76,-2.707999 17.536,-6.145333 25.524,-10.726666 0.804,-0.465333 1.9026,-0.526667 2.816,-0.309333 0.62,0.153333 1.2693,0.48 1.5773,1.068 0.019,0 0.019,0 0.019,0.016 2.3053,3.666666 2.584,8.233333 2.1493,12.443999 -0.076,0.726667 -0.184,1.454667 -0.308,2.197334 z m 26.312,14.673333 c -0.1387,-0.01467 -0.2627,-0.04533 -0.34,-0.06133 -2.492,-0.434666 -4.876,-1.501333 -6.888,-3.018666 -2.9707,-2.229334 -5,-5.322667 -6.252,-8.792 -1.92,-5.322667 -2.0133,-11.422666 -1.424,-16.994666 0.029,-0.402667 0.3533,-0.712 0.7587,-0.744 0.4013,-0.03067 0.7573,0.217333 0.8653,0.604 1.688,6.114666 4.196,11.439999 7.956,16.127999 -0.076,-0.494666 -0.1533,-0.989333 -0.2013,-1.468 -0.4947,-4.010666 -0.5107,-9.429333 2.3373,-12.647999 0.14,-0.726667 0.8973,-1.190667 1.6093,-1.376 0.836,-0.186667 1.828,-0.125334 2.556,0.324 6.8414,4.117333 14.424,7.243999 22.0094,9.705333 8.4813,2.756 17.2426,4.766666 26.0346,6.269333 6.2694,1.066667 12.584,1.872 18.9307,2.429333 2.5387,0.216 5.108,0.418667 7.6613,0.496 0.8214,0.03067 1.78,0.324 2.1987,1.068 0.54,0.928 -0.093,1.810667 -0.9747,2.182667 -0.9586,0.401333 -1.936,0.774666 -2.9106,1.129333 -2.4774,0.928 -4.968,1.764 -7.4907,2.522667 -1.1307,0.341333 -2.2773,0.681333 -3.4387,1.006666 13.344,5.728 25.9907,15.618667 28.3587,29.610666 1.3147,7.817067 0.82,15.8812 -3.7773,22.5984 -1.1614,1.7015996 -2.5227,3.2030663 -4.0547,4.5349329 5.184,2.6931999 9.208,6.37759985 10.6027,11.4238664 0.092,0.3546666 -0.047,0.7281333 -0.356,0.9281333 -0.3107,0.2 -0.6974,0.1854667 -0.992,-0.062533 -2.3067,-1.8724 -5.292,-3.5118666 -7.9547,-4.7827999 -4.8293,-2.29053329 -10,-3.9775999 -15.2,-5.1229332 -7.2293,-1.5932 -14.6573,-2.1822666 -22.0587,-1.9514666 -9.688,0.3114666 -19.284,2.0290666 -28.572,4.73693318 -1.3786,0.46559999 -2.7386,1.05359997 -4.0866,1.62546663 -1.6094,0.69586669 -3.22,1.41053329 -4.844,2.10679999 -2.5387,1.0969333 -5.264,2.2437332 -7.956,2.9078665 -1.7654,0.4505334 -4.4587,0.9468 -5.944,-0.4479999 -0.3414,-0.3109334 -0.572,-0.6973334 -0.7427,-1.1306667 -0.4653,-0.6494666 -0.744,-1.3921333 -0.712,-2.1958666 0.093,-3.3281332 5.3533,-6.0229332 8.7613,-7.5067998 -4.552,-3.3295999 -8.1906,-7.6946672 -10.5733,-13.2358662 -3.6987,-8.590667 -3.792,-20.044267 0.095,-28.588133 2.1653,-4.736 5.308,-8.853333 9.316,-12.165333 2.6946,-2.230667 5.6653,-4.009333 8.824,-5.402667 -1.7974,-1.161333 -3.468,-2.492 -4.984,-4.009333 -0.016,0.016 -0.016,0.04667 -0.016,0.06133 -0.1867,1.456 -0.372,2.910667 -0.744,4.334667 -0.184,0.681333 -0.3534,1.298667 -0.7734,1.904 -0.6346,0.912 -1.5786,1.361333 -2.6933,1.422667 -0.6507,0.03067 -1.316,-0.07733 -1.92,-0.356 v 0"
         style="fill:#252428;fill-opacity:1;fill-rule:evenodd;stroke:none;stroke-width:0.133333" />
      <path
         id="path108"
         d="m 1441.733,-33.504357 c 2.9867,-17.848 23.14,-30.077333 38.9587,-35.122666 15.3546,-4.906666 35.6786,-6.222666 49.068,4.366667 3.76,2.986666 6.6866,6.732 8.7306,11.065333 3.8987,8.313333 3.6187,19.549599 0.1214,27.909466 -4.008,9.595866 -11.6387,15.7249327 -20.5854,19.4401326 -5.928,-2.5844 -17.428,-4.3494666 -30.6466,-4.3494666 -15.604,0 -28.8227,2.4452 -33.2787,5.8342665 -3.236,-1.6557333 -6.1467,-3.8837332 -8.4067,-6.9025335 -4.828,-6.454666 -5.248,-14.550533 -3.9613,-22.241199 v 0"
         style="fill:#252428;fill-opacity:1;fill-rule:evenodd;stroke:none;stroke-width:0.133333" />
      <path
         id="path109"
         d="m 1446.377,-32.71529 c -2.308,13.776133 2.568,21.948532 13.5733,25.7094656 6.3774,-1.936 16.3,-3.1890666 27.4294,-3.1890666 8.776,0 16.7786,0.7744 22.908,2.0437333 29.9333,-8.3427993 28.2626,-33.8225323 23.9453,-43.0465323 -15.3707,-32.737332 -82.8733,-11.252 -87.856,18.4824 v 0"
         style="fill:#babcba;fill-opacity:1;fill-rule:evenodd;stroke:none;stroke-width:0.133333" />
      <path
         id="path110"
         d="m 1446.377,-32.71529 c -0.108,0.587066 -0.1867,1.176133 -0.2653,1.764133 8.236,8.8844 26.3613,9.116133 52.3653,3.2812 23.14,-5.184933 30.88,-17.831733 32.164,-29.161066 -20.2,-24.301333 -79.6053,-3.716 -84.264,24.115733 v 0"
         style="fill:#ffffff;fill-opacity:1;fill-rule:evenodd;stroke:none;stroke-width:0.133333" />
      <path
         id="path111"
         d="m 1500.2583,-46.864357 c 4.5334,0 8.1854,3.421334 8.1854,7.648 0,4.225067 -3.652,7.645333 -8.1854,7.645333 -4.5213,0 -8.1733,-3.420266 -8.1733,-7.645333 0,-4.226666 3.652,-7.648 8.1733,-7.648 v 0"
         style="fill:#252428;fill-opacity:1;fill-rule:evenodd;stroke:none;stroke-width:0.133333" />
      <path
         id="path112"
         d="m 1531.1663,-69.817689 c 0.017,0.217333 0.032,0.433333 0.063,0.650666 0.1533,1.564 0.324,3.173333 0.6973,4.734667 0.2467,0.992 0.62,2.910666 3.0174,3.049333 0.976,0.06267 1.78,-0.216 2.3213,-0.604 1.6427,-1.176 3.0813,-4.642667 3.6547,-6.097333 1.36,-3.404 2.2586,-6.965333 2.6306,-10.464 0.4027,-3.776 0.248,-8.296 -2.0266,-11.918666 0,0 -0.016,-0.01467 -0.016,-0.03067 -0.1414,-0.293333 -0.5267,-0.541333 -1.0694,-0.681333 -0.7586,-0.186667 -1.6413,-0.092 -2.2133,0.233333 -14.9987,8.589333 -34.888,14.316 -55.8453,17.644 -7.12,1.130666 -14.4574,1.997333 -21.8254,2.570666 -2.864,0.216 -5.944,0.432 -8.8533,0.510667 -0.8053,0.016 -1.4867,0.278667 -1.7333,0.696 -0.2494,0.418666 -0.017,0.850666 0.6346,1.113333 1.052,0.449333 2.1667,0.882667 3.2654,1.301333 2.724,1.02 5.5573,1.981334 8.436,2.864 8.1733,2.506667 17.3826,4.642667 26.716,5.510667 19.5946,1.825333 33.48,-2.509333 42.1466,-11.082666 v 0"
         style="fill:#252428;fill-opacity:1;fill-rule:evenodd;stroke:none;stroke-width:0.133333" />
      <path
         id="path113"
         d="m 1511.881,-3.5246245 c -0.8507,-0.2609333 -1.7027,-0.5104 -2.5693,-0.7412 -37.3027,-9.5666665 -62.9974,4.0854666 -77.208,11.7015997 34.488,-40.1827992 113.196,-14.1015996 102.7,-4.1801332 -2.32,4.7358666 -14.208,-3.79226656 -22.9227,-6.7802665 v 0"
         style="fill:#252428;fill-opacity:1;fill-rule:nonzero;stroke:none;stroke-width:0.133333" />
      <path
         id="path114"
         d="m 1551.6463,-90.359022 c -3.668,13.389333 -10.2493,18.635999 -14.752,22.475999 -1.9333,1.64 -0.8973,5.958667 -2.276,6.176 -4.5973,0.68 20.3094,2.924 17.028,-28.651999 v 0"
         style="fill:#252428;fill-opacity:1;fill-rule:evenodd;stroke:none;stroke-width:0.133333" />
      <path
         id="path115"
         d="m 1660.909,-33.07249 c 1.3,7.599999 0.836,15.462933 -3.6387,21.996266 -2.368,3.4505329 -5.6026,6.1130662 -9.3946,8.1250662 -2.0734,-4.0854666 -15.6947,-7.2437332 -32.1787,-7.2437332 -17.9267,0 -32.46,3.7306666 -32.46,8.3426665 0,0.1546666 0.015,0.3104 0.045,0.4650666 -8.3106,-3.2505332 -15.4013,-8.7916001 -19.2386,-17.7223991 -3.5907,-8.3604 -3.6987,-19.5812 0.093,-27.908133 2.1213,-4.629333 5.1693,-8.637333 9.1013,-11.889333 12.2894,-10.136 30.4934,-10.942666 45.46,-7.753333 16.7787,3.590666 39.0374,14.827999 42.2107,33.587866 v 0"
         style="fill:#252428;fill-opacity:1;fill-rule:evenodd;stroke:none;stroke-width:0.133333" />
      <path
         id="path116"
         d="m 1656.2797,-32.283024 c 2.2293,13.2344 -2.3054,21.624 -12.6294,26.1906662 -5.6506,-2.4453332 -16.0506,-4.1025332 -27.9533,-4.1025332 -13.112,0 -24.412,1.9957333 -29.5347,4.8770666 -23.464,-8.4067996 -21.7466,-30.9583996 -17.7373,-39.7505326 15.3693,-33.726666 82.872,-16.623999 87.8547,12.785333 v 0"
         style="fill:#babcba;fill-opacity:1;fill-rule:evenodd;stroke:none;stroke-width:0.133333" />
      <path
         id="path117"
         d="m 1570.3743,-48.644357 c 18.3414,-28.774666 80.768,-12.025333 85.86,16.129067 -6.532,15.045333 -26.808,15.818799 -57.7666,7.182799 -17.9387,-4.999999 -25.664,-14.133333 -28.0934,-23.311866 v 0"
         style="fill:#ffffff;fill-opacity:1;fill-rule:evenodd;stroke:none;stroke-width:0.133333" />
      <path
         id="path118"
         d="m 1602.3837,-46.864357 c -4.52,0 -8.1867,3.421334 -8.1867,7.648 0,4.225067 3.6667,7.645333 8.1867,7.645333 4.5213,0 8.1893,-3.420266 8.1893,-7.645333 0,-4.226666 -3.668,-7.648 -8.1893,-7.648 v 0"
         style="fill:#252428;fill-opacity:1;fill-rule:evenodd;stroke:none;stroke-width:0.133333" />
      <path
         id="path119"
         d="m 1568.021,-88.237689 c -2.9867,3.112 -2.74,8.822666 -2.336,12.197333 0.34,2.816 0.9907,5.68 1.9347,8.466666 0.4013,1.146667 1.3933,4.008 2.6306,4.937334 0.48,0.372 1.1774,0.602666 2.0134,0.573333 2.104,-0.109333 2.476,-1.826667 2.708,-2.709333 0.3706,-1.393334 0.5413,-2.817334 0.712,-4.209334 0.077,-0.618666 0.1533,-1.238666 0.216,-1.857333 2.5373,2.862667 5.8986,5.509333 10.4173,7.522667 4.968,2.228 10.7733,3.42 17.1667,3.681333 3.2333,0.124 6.4866,0.01733 9.6733,-0.261333 8.1573,-0.712 16.2373,-2.538667 23.4347,-4.737334 2.54,-0.773333 5.0306,-1.609333 7.4306,-2.490666 0.9747,-0.370667 1.9494,-0.744 2.8774,-1.130667 0.5733,-0.232 0.7906,-0.618667 0.5733,-0.992 -0.2013,-0.370667 -0.7893,-0.617333 -1.5013,-0.648 -2.5227,-0.08 -5.2,-0.278666 -7.7067,-0.496 -6.4093,-0.557333 -12.8013,-1.393333 -18.9947,-2.445333 -18.2026,-3.094667 -35.4293,-8.326667 -48.3373,-16.082666 -0.4973,-0.293334 -1.2387,-0.386667 -1.92,-0.216 -0.6667,0.154666 -1.0547,0.509333 -0.992,0.897333 v 0"
         style="fill:#252428;fill-opacity:1;fill-rule:evenodd;stroke:none;stroke-width:0.133333" />
      <path
         id="path120"
         d="m 1586.7357,-9.2350243 c 19.4253,-5.9734667 71.4786,-5.2171997 76.9586,14.8119996 -5.8666,-4.76666656 -31.964,-19.7026663 -74.5746,-7.2895998 -6.8427,2.33746658 -20.9427,10.4791997 -22.5534,5.4791998 -4.5666,-6.0229332 16.8734,-11.841733 20.1694,-13.0015996 v 0"
         style="fill:#252428;fill-opacity:1;fill-rule:nonzero;stroke:none;stroke-width:0.133333" />
      <path
         id="path121"
         d="m 1556.305,-90.359022 c 3.0947,11.237333 8.404,17.398666 12.708,21.283999 3.064,2.769333 1.7947,6.097333 3.6827,6.377333 4.5826,0.68 -19.656,3.914667 -16.3907,-27.661332 v 0"
         style="fill:#252428;fill-opacity:1;fill-rule:evenodd;stroke:none;stroke-width:0.133333" />
    </g>
  </g>
</svg>
